<svg id="svg" version="1.1" width="400" height="423.5976789168279" viewBox="0 0 400 423.5976789168279" xmlns="http://www.w3.org/2000/svg" xmlns:xlink="http://www.w3.org/1999/xlink" ><g id="svgg"><path id="path0" d="M0.000 211.799 L 0.000 423.598 96.905 423.598 L 193.810 423.598 193.810 374.902 C 193.810 331.259,193.748 326.155,193.207 325.706 C 192.003 324.707,177.653 327.292,109.203 340.839 C 99.158 342.827,90.808 344.322,90.648 344.162 C 90.488 344.002,93.299 335.131,96.896 324.450 C 101.958 309.417,103.373 304.788,103.160 303.961 C 102.946 303.130,91.795 294.020,52.990 262.974 C 25.547 241.020,3.095 222.864,3.095 222.628 C 3.095 222.392,8.448 218.743,14.990 214.519 C 28.646 205.702,28.240 206.004,28.240 204.679 C 28.240 204.127,24.212 189.614,19.288 172.427 C 14.364 155.241,10.438 141.077,10.563 140.952 C 10.688 140.827,23.512 142.865,39.061 145.482 C 60.358 149.066,67.578 150.150,68.331 149.878 C 69.156 149.580,70.456 147.285,75.768 136.750 C 79.308 129.729,82.406 123.985,82.651 123.985 C 83.031 123.985,96.242 136.359,129.865 168.205 C 136.693 174.673,136.985 174.898,138.390 174.782 C 140.352 174.620,140.360 174.363,138.691 165.885 C 136.482 154.664,123.275 87.936,120.098 71.944 C 116.913 55.910,117.000 56.480,117.751 56.480 C 118.046 56.480,127.053 60.658,137.766 65.764 C 148.479 70.870,157.605 75.048,158.045 75.048 C 159.404 75.048,159.926 74.330,164.509 66.151 C 166.954 61.789,176.000 45.687,184.611 30.368 C 193.223 15.048,200.561 1.949,200.918 1.257 L 201.567 0.000 100.784 0.000 L 0.000 0.000 0.000 211.799 M202.321 0.189 C 202.321 0.293,203.262 2.078,204.411 4.155 C 205.561 6.231,210.411 15.068,215.188 23.791 C 219.965 32.515,226.973 45.309,230.759 52.224 C 234.546 59.139,238.680 66.712,239.946 69.052 C 242.372 73.539,242.981 74.274,244.271 74.275 C 244.709 74.276,253.457 70.054,263.710 64.894 C 275.760 58.830,282.476 55.649,282.703 55.899 C 282.917 56.135,280.594 71.257,276.761 94.584 C 263.249 176.822,264.276 170.117,265.068 170.909 C 266.224 172.065,267.350 171.349,275.151 164.495 C 279.456 160.712,287.244 153.872,292.456 149.294 C 297.669 144.717,306.431 137.019,311.926 132.188 C 317.422 127.357,322.123 123.404,322.374 123.404 C 322.626 123.404,324.895 129.461,327.469 137.002 C 330.020 144.481,332.338 150.835,332.620 151.122 C 333.450 151.970,333.986 151.873,363.636 145.496 C 379.275 142.133,392.219 139.513,392.402 139.675 C 392.584 139.836,388.798 154.737,383.987 172.789 C 379.176 190.840,375.240 205.968,375.241 206.406 C 375.243 207.758,375.968 208.272,383.946 212.575 C 388.201 214.871,393.382 217.681,395.459 218.819 C 397.536 219.958,399.407 220.890,399.617 220.890 C 399.869 220.890,400.000 183.007,400.000 110.445 L 400.000 0.000 301.161 0.000 C 246.799 0.000,202.321 0.085,202.321 0.189 M205.411 120.132 C 192.191 122.527,173.572 133.628,172.348 139.844 C 172.264 140.270,172.089 141.120,171.958 141.732 L 171.721 142.845 170.805 141.984 C 169.213 140.489,168.174 137.495,168.359 134.939 C 168.550 132.296,168.354 132.200,166.743 134.139 C 163.904 137.556,163.061 140.109,163.008 145.443 L 162.960 150.285 161.267 150.616 C 158.576 151.143,157.782 152.129,159.671 152.598 C 160.256 152.743,161.114 153.215,161.577 153.648 C 162.475 154.486,163.359 154.315,162.998 153.373 C 162.832 152.942,163.098 152.805,164.101 152.805 C 166.449 152.805,167.015 152.055,166.337 149.843 C 165.647 147.587,165.567 141.821,166.217 141.171 C 166.564 140.825,166.915 141.208,167.707 142.796 C 170.588 148.570,173.674 149.642,174.243 145.068 C 175.036 138.696,181.714 133.316,194.376 128.847 C 198.121 127.525,198.553 127.563,197.560 129.126 C 195.555 132.279,194.129 135.129,193.924 136.394 C 193.651 138.078,193.456 138.077,199.807 136.432 C 211.662 133.360,220.313 133.801,229.952 137.966 C 234.242 139.820,234.586 140.426,231.352 140.426 C 224.413 140.426,216.247 142.146,211.165 144.680 C 205.574 147.467,204.620 148.778,209.169 147.423 C 221.845 143.648,231.938 146.510,243.520 157.164 C 246.421 159.832,246.256 159.985,241.531 159.022 C 226.692 155.998,205.323 158.811,192.549 165.468 C 188.552 167.551,186.103 171.202,188.171 171.996 C 189.180 172.383,190.329 171.426,190.329 170.199 C 190.329 169.398,190.518 169.052,190.959 169.052 C 191.595 169.052,191.536 170.953,190.844 172.757 C 190.657 173.244,190.722 173.349,191.077 173.130 C 191.814 172.674,193.415 169.014,193.420 167.774 C 193.435 163.435,216.526 160.451,228.820 163.199 C 245.162 166.852,255.169 176.319,256.315 189.212 C 256.664 193.141,256.168 193.284,254.140 189.842 C 250.170 183.102,245.248 177.994,240.426 175.612 C 235.050 172.957,224.898 171.450,219.923 172.569 L 217.602 173.091 222.050 173.331 C 232.330 173.886,237.400 177.527,245.447 190.135 C 253.847 203.298,255.381 219.430,249.287 230.513 C 247.569 233.637,248.717 233.939,250.575 230.851 C 255.316 222.970,257.953 213.504,256.128 210.913 C 255.655 210.241,255.300 208.860,255.139 207.067 C 254.180 196.417,250.249 188.593,241.847 180.614 C 238.456 177.395,237.921 176.741,238.852 176.960 C 246.104 178.664,255.523 192.271,256.709 202.756 C 257.507 209.806,260.085 199.113,260.125 188.588 C 260.158 180.036,259.853 178.683,257.712 177.898 C 257.083 177.667,256.139 176.652,255.319 175.326 C 250.886 168.156,244.002 163.869,233.141 161.516 C 226.753 160.132,227.887 159.663,235.397 160.584 C 245.948 161.877,251.918 165.169,256.878 172.429 C 258.007 174.082,258.989 175.508,259.060 175.596 C 259.556 176.221,259.539 174.930,259.026 172.924 C 255.382 158.700,242.134 147.158,226.596 144.668 C 223.008 144.093,222.794 143.690,225.887 143.331 C 234.220 142.363,246.747 146.763,252.515 152.682 C 255.728 155.980,255.909 155.930,253.805 152.328 C 248.659 143.522,237.465 134.117,229.014 131.499 C 221.797 129.263,210.982 129.743,201.317 132.728 C 197.376 133.945,197.225 133.696,199.882 130.353 C 203.400 125.927,208.751 121.745,212.553 120.450 C 213.521 120.120,214.313 119.779,214.313 119.693 C 214.313 119.337,208.110 119.643,205.411 120.132 M186.611 140.203 C 176.046 142.611,173.373 151.166,182.219 154.259 C 187.212 156.005,190.276 155.138,189.192 152.287 C 188.459 150.359,186.437 149.025,186.753 150.677 C 186.990 151.917,186.439 151.902,184.922 150.625 C 183.335 149.290,183.452 147.939,185.260 146.724 C 191.196 142.737,195.054 150.960,189.992 156.809 C 189.064 157.881,188.318 159.204,188.158 160.062 C 188.008 160.862,187.241 162.287,186.442 163.250 C 184.583 165.488,183.529 167.642,183.224 169.826 C 182.842 172.554,183.532 172.938,184.154 170.344 C 184.929 167.115,186.587 164.904,189.362 163.400 C 192.454 161.724,192.759 161.417,192.471 160.267 C 192.149 158.985,192.825 158.264,194.617 157.977 C 199.098 157.260,199.955 143.809,195.716 140.716 C 194.383 139.743,189.768 139.483,186.611 140.203 M165.146 154.597 C 158.139 161.233,151.737 171.291,152.130 175.046 C 152.347 177.121,152.137 177.599,149.147 181.822 C 143.541 189.743,141.971 194.781,144.287 197.418 C 145.838 199.184,146.428 199.195,147.994 197.485 C 149.600 195.732,150.097 195.771,150.097 197.651 C 150.097 200.998,151.810 201.107,153.121 197.844 C 153.627 196.583,154.634 194.745,155.358 193.759 C 158.248 189.819,155.852 188.111,150.596 190.364 C 149.158 190.980,148.936 190.996,148.936 190.483 C 148.936 189.434,151.479 184.349,153.505 181.346 C 155.988 177.667,156.180 176.921,155.156 174.915 C 154.714 174.048,154.352 173.044,154.352 172.684 C 154.352 171.055,160.342 161.778,164.875 156.387 C 168.449 152.136,168.567 151.356,165.146 154.597 M166.420 164.507 C 164.448 166.983,162.619 168.611,160.058 170.168 C 158.282 171.247,158.196 171.850,159.841 171.688 C 162.015 171.474,162.141 173.790,160.163 177.593 C 158.426 180.931,158.125 182.235,159.532 180.328 C 160.041 179.639,161.515 178.042,162.809 176.780 C 165.740 173.921,168.966 167.718,169.324 164.255 C 169.627 161.315,168.912 161.377,166.420 164.507 M85.434 169.485 C 83.118 170.507,82.275 174.468,84.374 174.468 C 84.777 174.468,85.106 174.579,85.106 174.716 C 85.106 175.244,83.701 175.991,82.686 176.003 C 82.042 176.011,81.287 176.398,80.779 176.983 C 79.047 178.974,75.629 177.937,75.629 175.419 L 75.629 173.888 73.421 173.772 C 71.983 173.697,70.810 173.866,70.056 174.256 C 69.419 174.585,68.587 174.855,68.209 174.855 C 67.830 174.855,66.508 175.480,65.271 176.243 C 62.245 178.111,59.996 177.915,57.851 175.597 C 56.319 173.941,56.152 173.906,50.312 174.004 C 48.728 174.030,47.214 173.870,46.946 173.648 C 46.678 173.425,46.113 173.353,45.691 173.487 C 45.268 173.621,44.578 173.516,44.156 173.252 C 43.538 172.867,43.265 172.877,42.749 173.306 C 42.118 173.829,41.418 173.378,41.399 172.437 C 41.372 171.123,40.572 172.712,40.035 175.145 C 38.821 180.648,36.543 183.592,32.638 184.702 C 31.551 185.011,31.092 187.098,31.912 188.004 C 32.233 188.359,32.495 188.934,32.495 189.282 C 32.495 189.630,32.843 190.101,33.269 190.329 C 33.694 190.557,34.043 191.066,34.043 191.462 C 34.043 191.857,34.304 192.280,34.623 192.403 C 34.942 192.525,35.203 193.052,35.203 193.573 C 35.203 195.223,35.591 195.684,39.209 198.326 C 41.155 199.747,43.420 201.478,44.243 202.175 C 45.065 202.871,46.284 203.557,46.951 203.699 C 47.617 203.841,48.375 204.129,48.634 204.337 C 49.445 204.990,55.532 205.056,57.305 204.431 C 58.181 204.121,59.364 203.868,59.933 203.868 C 60.502 203.868,61.160 203.676,61.395 203.440 C 61.631 203.204,62.406 202.889,63.117 202.738 C 64.032 202.544,64.393 202.264,64.350 201.777 C 64.307 201.272,64.494 201.143,65.055 201.290 C 65.555 201.420,66.102 201.165,66.635 200.551 C 67.615 199.424,68.247 199.373,69.283 200.339 L 70.062 201.064 69.073 202.520 C 68.530 203.321,68.085 204.279,68.085 204.648 C 68.085 205.017,66.923 206.493,65.502 207.927 L 62.920 210.535 60.879 210.296 C 58.850 210.057,58.835 210.063,58.209 211.381 C 57.484 212.909,56.734 213.316,55.682 212.753 C 55.123 212.454,54.681 212.526,53.886 213.045 C 53.306 213.423,52.129 213.767,51.271 213.807 C 50.412 213.848,48.404 213.935,46.809 214.001 L 43.907 214.120 43.907 212.969 C 43.907 211.275,40.008 211.016,39.590 212.682 C 39.082 214.704,43.200 220.977,49.420 227.660 C 53.552 232.099,53.645 232.216,54.318 233.827 C 54.628 234.569,56.147 236.357,57.693 237.801 C 59.240 239.244,61.035 240.943,61.684 241.576 C 64.824 244.642,69.995 247.780,71.331 247.431 C 71.767 247.317,73.035 247.488,74.150 247.812 C 75.789 248.289,76.344 248.310,77.063 247.924 C 77.550 247.661,78.559 247.315,79.304 247.153 C 82.615 246.436,83.632 246.048,85.168 244.918 C 86.329 244.064,87.238 243.714,88.290 243.714 C 91.273 243.714,96.822 241.263,97.325 239.723 C 97.451 239.337,98.294 238.187,99.199 237.168 C 101.149 234.972,101.939 231.969,101.525 228.318 C 101.313 226.442,101.403 225.857,102.071 224.759 C 102.644 223.816,102.756 223.308,102.465 222.958 C 101.896 222.272,102.236 221.890,104.438 220.739 C 107.200 219.294,108.863 219.604,107.346 221.281 C 106.837 221.843,106.647 222.968,106.514 226.189 C 106.419 228.487,106.307 230.797,106.265 231.321 C 106.201 232.133,106.394 232.309,107.557 232.504 C 110.191 232.945,110.496 233.680,108.743 235.359 C 107.653 236.403,107.350 237.229,106.894 240.396 C 106.744 241.438,106.842 242.047,107.206 242.338 C 107.973 242.951,108.704 244.359,108.704 245.224 C 108.704 245.690,109.104 246.110,109.768 246.343 L 110.832 246.716 109.768 247.140 C 108.492 247.647,108.463 247.856,109.507 248.967 C 110.120 249.620,110.219 249.991,109.927 250.539 C 109.717 250.934,109.345 252.248,109.102 253.458 C 108.858 254.668,108.345 256.061,107.961 256.553 C 106.458 258.477,106.964 260.735,108.897 260.735 C 109.217 260.735,109.478 261.064,109.478 261.466 C 109.478 263.442,113.519 265.311,113.980 263.549 C 114.105 263.071,114.768 262.579,115.705 262.270 C 116.541 261.994,117.361 261.579,117.527 261.348 C 118.392 260.144,119.321 256.436,119.305 254.255 C 119.286 251.773,119.703 251.221,120.696 252.418 C 120.961 252.737,121.368 252.998,121.600 252.998 C 121.831 252.998,122.396 253.468,122.854 254.042 C 123.951 255.418,126.886 254.818,126.886 253.218 C 126.886 252.570,127.164 252.238,127.853 252.066 C 130.182 251.481,128.603 246.695,125.564 245.126 L 124.048 244.344 125.730 243.932 C 126.973 243.628,127.577 243.218,128.048 242.360 C 128.428 241.667,129.063 241.146,129.623 241.067 C 130.139 240.995,130.822 240.712,131.141 240.440 C 132.248 239.495,133.664 238.913,135.366 238.702 C 137.592 238.428,137.754 237.777,135.792 236.992 C 133.807 236.198,132.711 236.198,131.578 236.991 C 130.182 237.969,129.413 236.954,129.401 234.116 C 129.390 231.822,130.705 230.174,132.547 230.174 C 134.697 230.174,135.449 226.203,133.822 223.445 C 132.895 221.874,133.149 221.595,135.783 221.287 C 137.958 221.033,138.580 219.541,136.679 219.140 C 134.356 218.649,133.366 217.408,135.297 217.408 C 135.997 217.408,136.765 217.043,137.331 216.441 C 137.830 215.909,138.560 215.474,138.951 215.474 C 141.511 215.474,143.433 211.220,141.393 210.072 C 140.359 209.490,140.219 209.192,140.112 207.332 C 139.974 204.931,139.616 204.348,138.173 204.182 C 137.317 204.083,137.104 203.828,136.944 202.714 C 136.770 201.502,136.603 201.341,135.291 201.129 C 134.489 200.999,133.433 200.518,132.945 200.060 C 132.458 199.601,131.634 199.224,131.116 199.220 C 129.630 199.211,129.091 198.645,128.850 196.841 C 128.670 195.492,128.460 195.141,127.775 195.043 C 127.295 194.975,126.815 194.552,126.677 194.076 C 126.543 193.611,125.979 192.849,125.426 192.384 C 124.315 191.450,124.434 190.859,126.157 188.718 C 127.255 187.355,126.920 185.687,125.547 185.687 C 125.032 185.687,124.503 185.861,124.371 186.074 C 124.002 186.671,123.407 186.532,123.123 185.783 C 122.981 185.411,122.464 184.789,121.974 184.401 C 120.814 183.483,120.846 182.407,122.068 181.185 C 122.733 180.520,122.934 180.054,122.686 179.752 C 122.483 179.505,122.258 178.868,122.184 178.337 C 121.964 176.747,120.031 176.751,119.476 178.342 C 119.125 179.349,118.908 179.515,118.229 179.292 C 117.778 179.144,116.742 178.936,115.929 178.830 C 115.034 178.713,114.361 178.386,114.227 178.003 C 113.614 176.256,111.462 174.996,110.832 176.015 C 110.409 176.699,110.026 176.437,109.138 174.855 C 108.217 173.217,107.309 172.534,106.054 172.534 C 105.632 172.534,104.945 172.065,104.528 171.492 C 103.788 170.477,103.742 170.466,102.768 171.105 C 102.218 171.465,101.449 171.760,101.058 171.760 C 100.668 171.760,100.130 171.978,99.863 172.244 C 99.475 172.631,99.239 172.544,98.684 171.808 C 97.641 170.429,90.985 169.406,90.598 170.566 C 90.358 171.284,89.411 171.029,88.931 170.116 C 88.067 168.477,87.820 168.432,85.434 169.485 M200.701 170.610 C 198.450 170.989,194.647 172.981,193.176 174.550 C 191.940 175.869,191.995 175.864,194.976 174.375 C 197.298 173.215,201.141 172.353,202.319 172.727 C 203.250 173.022,204.642 172.313,204.642 171.544 C 204.642 171.098,202.939 170.034,202.586 170.258 C 202.547 170.283,201.698 170.441,200.701 170.610 M88.008 172.147 C 88.843 173.070,90.582 173.153,91.840 172.329 C 93.012 171.560,96.031 172.244,97.554 173.622 C 98.422 174.408,98.829 174.516,100.069 174.295 C 104.190 173.558,106.116 174.094,107.809 176.452 C 109.193 178.377,109.339 178.463,111.034 178.358 C 111.716 178.315,112.274 178.653,112.883 179.477 C 113.566 180.400,114.050 180.658,115.104 180.658 C 115.845 180.658,116.754 180.819,117.123 181.016 C 117.493 181.213,118.100 181.469,118.472 181.584 C 118.857 181.704,119.150 182.175,119.150 182.676 C 119.152 183.787,120.155 185.444,122.023 187.425 C 123.215 188.689,123.400 189.087,123.053 189.642 C 122.315 190.824,122.583 192.221,123.791 193.484 C 124.429 194.152,124.952 194.922,124.952 195.194 C 124.952 195.466,125.358 196.008,125.854 196.398 C 126.350 196.788,126.876 197.589,127.024 198.177 C 127.381 199.600,128.607 200.774,129.735 200.774 C 130.238 200.774,131.113 201.138,131.680 201.584 C 132.246 202.029,133.180 202.519,133.756 202.673 C 134.502 202.873,134.907 203.320,135.169 204.234 C 135.432 205.149,135.902 205.667,136.820 206.050 C 137.967 206.530,138.104 206.750,138.104 208.116 C 138.104 209.260,138.394 209.974,139.258 210.958 C 140.520 212.395,140.068 213.540,138.238 213.540 C 137.813 213.540,137.057 213.975,136.557 214.507 C 135.945 215.158,135.233 215.474,134.376 215.474 C 132.813 215.474,132.122 216.540,132.435 218.468 C 132.598 219.472,132.444 220.091,131.822 220.933 L 130.990 222.057 131.840 223.805 C 133.360 226.934,133.075 227.684,129.787 229.219 C 128.511 229.815,127.344 230.488,127.195 230.714 C 126.748 231.392,127.198 235.871,127.838 237.108 C 128.648 238.675,128.636 238.724,126.945 240.555 C 125.843 241.748,125.160 242.166,124.311 242.166 C 123.026 242.166,121.947 242.841,121.838 243.714 C 121.642 245.280,121.930 245.707,123.694 246.463 C 127.152 247.945,127.711 249.209,125.728 251.062 C 124.469 252.237,123.851 252.121,121.094 250.187 C 118.795 248.575,117.420 249.995,117.372 254.028 C 117.328 257.725,116.287 260.186,114.599 260.587 C 114.016 260.726,113.246 261.094,112.887 261.405 C 112.055 262.127,111.571 261.820,111.284 260.387 C 111.149 259.710,110.738 259.149,110.267 258.999 C 109.334 258.703,109.292 258.348,110.025 256.931 C 110.326 256.349,110.695 255.182,110.846 254.339 C 110.996 253.495,111.434 252.282,111.818 251.643 C 113.373 249.059,112.501 244.634,109.820 241.506 C 108.539 240.011,108.821 238.120,110.618 236.170 C 112.658 233.956,112.315 232.221,109.614 231.093 C 107.871 230.364,108.083 229.858,110.458 229.070 C 113.498 228.062,113.387 225.360,110.292 225.000 C 108.898 224.837,108.523 224.590,108.857 224.051 C 109.003 223.814,109.642 223.820,110.618 224.068 C 112.485 224.541,114.735 223.397,115.145 221.765 C 115.554 220.133,114.873 219.544,112.496 219.471 C 111.123 219.429,109.910 219.122,109.056 218.602 C 106.950 217.318,101.640 218.728,100.759 220.805 C 100.134 222.278,99.695 225.115,99.639 228.046 C 99.531 233.749,99.528 233.764,97.776 235.898 C 96.871 236.999,95.736 238.414,95.252 239.042 C 94.316 240.256,90.921 241.517,87.358 241.974 C 86.362 242.101,85.095 242.562,84.541 242.998 C 82.030 244.972,76.261 246.363,73.628 245.628 C 72.741 245.380,71.846 245.282,71.639 245.410 C 71.143 245.716,67.810 244.235,66.344 243.057 C 60.888 238.672,56.231 234.005,55.926 232.616 C 55.766 231.887,54.225 229.922,51.767 227.312 C 47.531 222.815,43.251 217.458,43.530 217.005 C 43.816 216.542,46.409 216.151,49.710 216.073 C 51.412 216.033,53.185 215.795,53.650 215.543 C 54.114 215.292,55.040 215.087,55.706 215.087 C 57.130 215.087,58.042 214.650,59.355 213.337 C 60.144 212.549,60.691 212.379,62.453 212.379 C 64.518 212.379,64.627 212.326,65.539 210.882 C 66.059 210.059,67.100 208.877,67.853 208.257 C 68.641 207.607,69.471 206.421,69.809 205.463 C 70.132 204.547,70.843 203.267,71.389 202.619 C 73.877 199.662,69.771 196.458,66.050 198.453 C 65.256 198.878,64.300 199.226,63.927 199.226 C 63.553 199.226,62.754 199.749,62.151 200.388 C 61.548 201.027,60.591 201.650,60.024 201.773 C 59.458 201.896,58.111 202.257,57.032 202.577 C 55.466 203.040,54.489 203.080,52.196 202.773 C 47.726 202.174,46.608 201.764,44.408 199.917 C 43.281 198.972,41.269 197.445,39.936 196.524 C 37.632 194.933,37.524 194.788,37.748 193.591 C 37.957 192.476,37.736 192.031,35.820 189.707 C 33.197 186.527,33.197 186.870,35.812 185.480 C 38.102 184.261,40.718 180.646,41.256 177.955 C 41.691 175.778,42.398 175.595,49.317 175.860 L 55.513 176.098 56.899 177.426 C 59.161 179.594,62.828 179.995,65.454 178.362 C 69.759 175.687,73.224 175.053,73.738 176.847 C 74.518 179.565,79.252 180.854,81.502 178.961 C 82.163 178.405,83.006 177.950,83.376 177.950 C 84.100 177.950,86.665 176.510,87.131 175.842 C 87.720 174.998,87.395 173.735,86.401 173.011 C 85.809 172.580,85.492 172.076,85.651 171.819 C 86.076 171.130,87.233 171.291,88.008 172.147 M195.551 176.711 C 194.487 177.079,193.182 177.704,192.650 178.100 C 191.921 178.641,191.874 178.747,192.456 178.530 C 192.882 178.372,194.913 178.133,196.970 177.999 C 200.911 177.743,201.397 177.577,201.027 176.612 C 200.716 175.801,198.039 175.849,195.551 176.711 M221.277 179.445 C 221.277 179.628,222.028 180.066,222.946 180.416 C 234.605 184.869,245.261 201.609,245.261 215.474 C 245.261 225.043,242.952 230.545,235.142 239.582 C 232.169 243.023,230.753 245.218,230.355 247.002 C 230.179 247.789,230.656 247.228,231.835 245.261 C 233.566 242.373,235.561 240.291,243.312 233.282 C 248.939 228.193,251.020 225.045,249.712 223.600 C 249.227 223.064,249.193 222.347,249.503 219.097 C 250.896 204.481,243.195 190.379,229.316 182.129 C 226.044 180.184,221.277 178.592,221.277 179.445 M198.036 181.015 C 196.164 182.887,196.956 186.808,199.121 186.387 C 199.949 186.227,200.231 185.300,199.452 185.300 C 198.512 185.300,198.675 183.481,199.661 182.953 C 201.577 181.928,203.867 185.207,203.868 188.975 C 203.868 191.784,202.565 194.776,199.826 198.259 C 196.476 202.520,196.880 202.682,200.935 198.704 C 205.564 194.164,206.934 191.281,206.442 187.121 C 205.809 181.779,200.864 178.187,198.036 181.015 M309.284 180.122 C 301.670 181.240,295.141 188.023,294.533 195.449 C 294.396 197.130,293.875 198.880,292.833 201.161 C 289.117 209.293,289.435 214.503,294.086 221.682 C 298.954 229.197,304.989 231.759,301.728 224.925 C 299.501 220.258,299.400 216.539,301.373 211.758 C 301.806 210.709,301.726 209.924,300.745 205.568 C 297.384 190.644,300.828 183.272,311.227 183.131 C 315.831 183.069,319.923 182.360,319.923 181.624 C 319.923 180.590,312.874 179.595,309.284 180.122 M322.030 184.560 C 321.887 184.791,322.293 185.531,322.932 186.204 C 325.930 189.360,326.555 193.294,324.642 196.956 C 323.319 199.489,321.858 200.633,313.066 206.017 C 304.262 211.408,302.901 213.041,302.901 218.215 C 302.901 222.107,306.577 230.174,308.350 230.174 C 308.979 230.174,308.728 229.312,307.713 227.981 C 303.712 222.735,303.579 215.885,307.411 212.325 C 309.158 210.703,311.216 209.852,318.470 207.755 C 331.448 204.002,334.663 201.942,335.793 196.651 C 336.883 191.547,333.030 186.500,326.791 184.862 C 323.648 184.037,322.401 183.958,322.030 184.560 M220.696 186.149 C 231.795 194.040,238.843 215.329,234.604 228.155 C 232.792 233.637,231.983 233.996,232.534 229.074 C 233.105 223.963,231.711 216.028,229.600 212.379 C 228.854 211.089,228.875 211.353,229.833 215.347 C 233.059 228.786,228.412 237.565,210.832 251.245 C 201.167 258.766,193.812 268.635,190.126 279.027 C 188.774 282.841,188.534 282.720,186.788 277.339 C 180.815 258.932,181.550 240.778,188.850 226.391 C 191.847 220.485,191.971 219.708,189.349 223.270 C 179.916 236.082,177.684 248.605,181.240 268.765 C 183.120 279.422,189.306 299.302,192.242 304.117 C 193.235 305.746,193.238 305.786,192.033 301.152 C 188.155 286.240,194.661 270.249,210.293 256.271 C 212.185 254.579,215.779 251.201,218.279 248.765 C 220.779 246.328,222.824 244.473,222.824 244.641 C 222.824 244.810,222.223 246.715,221.488 248.876 C 220.040 253.135,219.350 256.674,219.345 259.865 C 219.341 262.563,219.849 262.440,220.436 259.599 C 221.027 256.736,223.743 251.227,225.270 249.793 C 226.273 248.851,226.363 248.597,225.990 247.778 C 225.406 246.496,227.332 243.652,231.198 240.085 C 237.557 234.217,239.920 227.807,239.334 218.015 C 238.663 206.813,230.789 192.059,222.667 186.783 C 220.278 185.232,218.684 184.719,220.696 186.149 M307.751 186.181 C 305.826 187.271,304.926 189.308,305.450 191.388 C 305.910 193.210,306.539 193.368,307.179 191.823 C 307.462 191.139,308.530 189.537,309.553 188.263 C 312.116 185.070,311.325 184.157,307.751 186.181 M314.136 187.846 C 311.721 190.027,308.894 194.782,309.332 195.924 C 309.684 196.841,313.690 198.144,316.260 198.178 C 323.271 198.270,324.999 190.305,318.685 187.006 C 316.993 186.123,315.799 186.343,314.136 187.846 M273.736 187.349 C 273.098 187.815,273.059 188.770,273.179 200.985 L 273.308 214.120 274.358 216.248 C 275.770 219.106,279.164 222.772,284.635 227.347 C 294.274 235.409,297.053 239.429,298.759 247.776 L 299.629 252.031 305.230 252.031 L 310.832 252.031 310.942 248.078 L 311.052 244.125 309.476 242.983 C 308.608 242.355,306.759 240.565,305.365 239.006 C 302.347 235.629,299.609 233.307,297.266 232.137 C 295.365 231.187,295.306 231.087,296.120 230.187 C 296.627 229.626,296.500 229.335,294.920 227.449 C 286.863 217.832,285.204 207.958,290.239 199.596 C 291.090 198.182,291.705 196.472,292.044 194.577 C 292.327 192.997,292.885 190.753,293.285 189.591 C 293.856 187.930,293.907 187.412,293.524 187.168 C 292.651 186.614,274.515 186.779,273.736 187.349 M336.314 187.418 C 336.193 187.731,336.456 188.573,336.898 189.287 C 339.716 193.846,339.188 199.448,335.564 203.460 L 334.096 205.084 334.548 210.376 C 335.197 217.972,334.338 222.274,331.284 226.713 C 330.258 228.204,329.986 228.931,330.159 229.718 C 330.439 230.992,325.887 235.728,323.017 237.148 C 322.060 237.622,320.231 239.076,318.953 240.378 C 317.676 241.681,316.131 243.097,315.520 243.526 C 314.416 244.301,314.411 244.325,314.476 248.156 C 314.555 252.845,314.218 252.598,320.552 252.605 C 326.481 252.612,326.219 252.774,327.086 248.577 C 328.611 241.192,331.884 235.738,338.042 230.315 C 345.707 223.566,350.000 219.054,351.334 216.344 L 352.611 213.749 352.840 200.782 C 352.984 192.675,352.930 187.633,352.696 187.331 C 352.102 186.561,336.611 186.643,336.314 187.418 M175.244 191.724 C 171.159 192.822,166.592 195.899,161.762 200.808 L 158.655 203.965 156.407 203.799 C 155.003 203.696,153.287 203.214,151.838 202.516 C 147.978 200.656,148.090 200.689,148.546 201.542 C 149.555 203.427,155.187 206.190,158.021 206.190 C 159.450 206.190,159.537 206.261,161.787 209.284 C 164.084 212.373,168.221 214.498,173.404 215.253 C 175.606 215.574,175.787 215.098,173.888 213.978 C 171.901 212.806,172.065 211.690,174.737 208.202 C 176.827 205.473,181.970 200.567,183.725 199.628 C 186.618 198.080,183.092 207.219,179.046 211.759 C 176.791 214.289,176.871 214.749,179.408 213.837 C 181.646 213.032,181.809 213.182,180.580 214.910 C 176.761 220.277,171.794 224.342,166.818 226.173 L 163.830 227.273 165.400 227.388 C 166.311 227.455,168.254 227.096,170.026 226.533 C 173.834 225.324,173.720 225.062,171.634 230.249 C 168.612 237.768,167.877 242.136,168.622 248.162 C 169.330 253.888,170.595 256.916,170.603 252.901 C 170.611 248.270,172.131 243.359,175.121 238.298 C 178.305 232.910,178.812 232.691,177.318 237.347 C 176.775 239.040,176.090 241.887,175.796 243.673 C 175.502 245.459,174.996 247.213,174.671 247.572 C 173.627 248.725,174.261 253.526,176.280 259.768 C 178.101 265.394,179.142 266.648,178.176 262.050 C 175.513 249.379,177.475 237.445,183.804 227.805 C 187.787 221.740,185.108 221.757,178.606 227.840 C 177.233 229.124,175.999 230.174,175.862 230.174 C 175.105 230.174,177.260 225.319,179.461 222.067 C 180.790 220.102,180.776 219.903,179.352 220.551 C 177.573 221.362,177.803 220.637,180.375 217.336 C 184.669 211.823,188.395 205.573,188.395 203.881 C 188.395 202.515,187.768 203.017,186.265 205.588 C 183.135 210.939,181.238 211.450,183.672 206.286 C 186.438 200.416,187.068 196.905,185.355 196.905 C 183.640 196.905,176.485 202.984,172.704 207.653 C 169.046 212.170,165.901 211.988,162.356 207.056 L 161.171 205.408 162.342 204.155 C 162.987 203.465,164.324 201.828,165.314 200.515 C 169.137 195.449,172.678 193.212,176.712 193.314 C 179.769 193.391,180.791 192.723,179.293 191.627 C 178.416 190.986,177.950 190.997,175.244 191.724 M302.473 193.133 C 302.072 197.810,303.915 207.350,305.218 207.350 C 305.414 207.350,307.279 206.244,309.363 204.892 C 311.448 203.540,313.544 202.309,314.023 202.158 C 315.583 201.664,315.024 200.885,312.969 200.687 C 308.773 200.284,303.288 196.387,303.288 193.809 C 303.288 192.711,302.561 192.108,302.473 193.133 M161.493 198.092 C 161.353 198.318,161.335 198.601,161.453 198.720 C 161.772 199.038,162.863 198.541,162.863 198.078 C 162.863 197.553,161.819 197.563,161.493 198.092 M159.188 200.774 C 158.769 201.450,159.390 202.022,159.996 201.519 C 160.296 201.270,160.542 200.913,160.542 200.726 C 160.542 200.260,159.482 200.297,159.188 200.774 M214.461 203.682 C 218.547 217.284,216.878 224.697,207.541 234.415 C 198.906 243.404,193.510 251.455,191.109 258.933 C 190.015 262.342,188.977 257.251,189.308 250.097 C 189.612 243.508,191.503 235.394,194.717 226.886 C 196.106 223.210,195.083 224.606,192.204 230.317 C 185.702 243.216,184.263 254.700,187.416 268.542 C 189.139 276.107,189.126 276.106,191.110 268.859 C 194.507 256.452,198.807 248.784,206.966 240.585 C 212.038 235.487,213.985 232.827,215.910 228.363 L 217.215 225.338 217.185 217.988 C 217.155 210.588,216.136 204.719,214.633 203.288 C 214.353 203.022,214.299 203.144,214.461 203.682 M328.433 207.398 C 327.901 207.620,324.245 208.735,320.309 209.876 C 306.860 213.776,304.948 216.120,308.356 224.536 C 309.527 227.429,309.910 227.536,311.203 225.331 C 312.869 222.488,316.054 220.997,319.394 221.498 C 321.780 221.856,321.828 222.395,319.707 224.999 C 315.478 230.191,316.763 232.439,322.676 230.192 C 329.092 227.754,332.015 222.768,331.984 214.313 C 331.958 207.319,331.370 206.174,328.433 207.398 M112.303 221.857 C 112.177 222.496,111.253 222.498,110.437 221.861 C 109.709 221.292,109.737 221.268,111.025 221.366 C 111.770 221.423,112.345 221.644,112.303 221.857 M348.936 224.630 C 347.340 226.237,344.425 228.940,342.458 230.636 C 336.086 236.133,333.486 239.621,331.492 245.347 C 329.321 251.584,329.910 252.982,334.441 252.348 L 336.701 252.031 337.341 249.516 C 338.830 243.654,342.150 239.383,349.625 233.712 L 352.828 231.282 352.720 226.601 C 352.589 220.946,352.593 220.949,348.936 224.630 M273.372 222.308 C 272.964 222.716,273.072 230.146,273.497 230.940 C 273.708 231.334,275.492 232.920,277.462 234.466 C 284.691 240.135,287.605 244.039,288.700 249.516 L 289.203 252.031 292.474 252.031 L 295.745 252.031 295.690 249.980 C 295.506 243.081,291.769 237.658,281.121 228.833 C 278.610 226.752,276.013 224.375,275.350 223.550 C 274.128 222.029,273.835 221.845,273.372 222.308 M354.932 257.865 C 330.464 276.907,308.574 293.958,306.286 295.756 C 301.141 299.800,301.091 297.032,306.733 320.696 C 309.244 331.228,311.161 340.000,310.991 340.190 C 310.814 340.389,306.703 339.930,301.280 339.107 C 220.214 326.801,208.973 325.235,207.737 326.076 C 206.801 326.712,206.137 392.155,206.832 415.184 L 207.086 423.598 303.543 423.598 L 400.000 423.598 400.000 323.404 C 400.000 268.298,399.869 223.218,399.710 223.227 C 399.550 223.236,379.400 238.823,354.932 257.865 M314.262 225.242 C 312.689 226.623,311.632 228.708,311.223 231.236 C 310.870 233.422,310.661 233.486,307.712 232.306 C 304.954 231.203,301.148 230.554,301.398 231.230 C 301.846 232.441,311.416 240.919,312.517 241.080 C 314.325 241.345,315.872 240.487,317.386 238.380 C 318.325 237.073,319.479 236.089,321.066 235.243 C 324.811 233.247,324.760 232.529,320.928 233.290 C 314.718 234.525,312.033 230.364,316.072 225.765 C 318.017 223.549,316.643 223.152,314.262 225.242 M273.136 242.456 C 273.173 253.137,272.682 252.483,280.526 252.299 L 285.597 252.180 285.385 250.171 C 284.920 245.771,282.732 242.514,277.550 238.514 C 272.909 234.932,273.110 234.752,273.136 242.456 M350.368 237.166 C 344.644 240.957,340.812 246.530,340.812 251.062 L 340.812 252.245 346.712 252.138 L 352.611 252.031 352.716 244.322 C 352.836 235.571,352.825 235.539,350.368 237.166 " stroke="none" fill="#ffffff" fill-rule="evenodd"></path><path id="path1" d="M199.213 4.352 C 179.967 38.813,159.940 74.184,159.459 74.565 C 158.305 75.476,157.207 75.030,137.766 65.764 C 127.053 60.658,118.046 56.480,117.751 56.480 C 117.000 56.480,116.913 55.910,120.098 71.944 C 123.275 87.936,136.482 154.664,138.691 165.885 C 140.360 174.363,140.352 174.620,138.390 174.782 C 136.985 174.898,136.693 174.673,129.865 168.205 C 96.242 136.359,83.031 123.985,82.651 123.985 C 82.406 123.985,79.308 129.729,75.768 136.750 C 70.456 147.285,69.156 149.580,68.331 149.878 C 67.578 150.150,60.358 149.066,39.061 145.482 C 23.512 142.865,10.688 140.827,10.563 140.952 C 10.438 141.077,14.364 155.241,19.288 172.427 C 24.212 189.614,28.240 204.127,28.240 204.679 C 28.240 206.004,28.646 205.702,14.990 214.519 C 8.448 218.743,3.095 222.392,3.095 222.628 C 3.095 222.864,25.547 241.020,52.990 262.974 C 91.795 294.020,102.946 303.130,103.160 303.961 C 103.373 304.788,101.958 309.417,96.896 324.450 C 93.299 335.131,90.488 344.002,90.648 344.162 C 90.808 344.322,99.158 342.827,109.203 340.839 C 177.653 327.292,192.003 324.707,193.207 325.706 C 193.748 326.155,193.810 331.259,193.810 374.902 L 193.810 423.598 200.314 423.598 L 206.818 423.598 206.675 392.360 C 206.494 352.530,206.909 326.639,207.737 326.076 C 208.973 325.235,220.208 326.800,301.280 339.107 C 306.703 339.930,310.814 340.389,310.991 340.190 C 311.161 340.000,309.244 331.228,306.733 320.696 C 301.382 298.253,301.542 299.588,303.965 297.587 C 306.030 295.882,397.283 224.946,398.924 223.771 C 399.960 223.028,400.475 220.890,399.617 220.890 C 399.407 220.890,397.536 219.958,395.459 218.819 C 393.382 217.681,388.201 214.871,383.946 212.575 C 375.968 208.272,375.243 207.758,375.241 206.406 C 375.240 205.968,379.176 190.840,383.987 172.789 C 388.798 154.737,392.584 139.836,392.402 139.675 C 392.219 139.513,379.275 142.133,363.636 145.496 C 333.986 151.873,333.450 151.970,332.620 151.122 C 332.338 150.835,330.020 144.481,327.469 137.002 C 324.895 129.461,322.626 123.404,322.374 123.404 C 322.123 123.404,317.422 127.357,311.926 132.188 C 306.431 137.019,297.669 144.717,292.456 149.294 C 287.244 153.872,279.456 160.712,275.151 164.495 C 267.350 171.349,266.224 172.065,265.068 170.909 C 264.276 170.117,263.249 176.822,276.761 94.584 C 280.594 71.257,282.917 56.135,282.703 55.899 C 282.476 55.649,275.760 58.830,263.710 64.894 C 253.457 70.054,244.709 74.276,244.271 74.275 C 242.981 74.274,242.372 73.539,239.946 69.052 C 237.720 64.936,233.597 57.400,215.185 23.791 C 202.109 -0.078,202.153 -0.000,201.889 -0.000 C 201.754 -0.000,200.550 1.958,199.213 4.352 M214.313 119.693 C 214.313 119.779,213.521 120.120,212.553 120.450 C 208.751 121.745,203.400 125.927,199.882 130.353 C 197.225 133.696,197.376 133.945,201.317 132.728 C 210.982 129.743,221.797 129.263,229.014 131.499 C 237.465 134.117,248.659 143.522,253.805 152.328 C 255.909 155.930,255.728 155.980,252.515 152.682 C 246.747 146.763,234.220 142.363,225.887 143.331 C 222.794 143.690,223.008 144.093,226.596 144.668 C 242.134 147.158,255.382 158.700,259.026 172.924 C 259.539 174.930,259.556 176.221,259.060 175.596 C 258.989 175.508,258.007 174.082,256.878 172.429 C 251.918 165.169,245.948 161.877,235.397 160.584 C 227.887 159.663,226.753 160.132,233.141 161.516 C 244.002 163.869,250.886 168.156,255.319 175.326 C 256.139 176.652,257.083 177.667,257.712 177.898 C 259.853 178.683,260.158 180.036,260.125 188.588 C 260.085 199.113,257.507 209.806,256.709 202.756 C 255.523 192.271,246.104 178.664,238.852 176.960 C 237.921 176.741,238.456 177.395,241.847 180.614 C 250.249 188.593,254.180 196.417,255.139 207.067 C 255.300 208.860,255.655 210.241,256.128 210.913 C 257.953 213.504,255.316 222.970,250.575 230.851 C 248.717 233.939,247.569 233.637,249.287 230.513 C 255.381 219.430,253.847 203.298,245.447 190.135 C 237.400 177.527,232.330 173.886,222.050 173.331 L 217.602 173.091 219.923 172.569 C 224.898 171.450,235.050 172.957,240.426 175.612 C 245.248 177.994,250.170 183.102,254.140 189.842 C 256.168 193.284,256.664 193.141,256.315 189.212 C 255.169 176.319,245.162 166.852,228.820 163.199 C 216.526 160.451,193.435 163.435,193.420 167.774 C 193.415 169.014,191.814 172.674,191.077 173.130 C 190.722 173.349,190.657 173.244,190.844 172.757 C 191.536 170.953,191.595 169.052,190.959 169.052 C 190.518 169.052,190.329 169.398,190.329 170.199 C 190.329 171.426,189.180 172.383,188.171 171.996 C 186.103 171.202,188.552 167.551,192.549 165.468 C 205.323 158.811,226.692 155.998,241.531 159.022 C 246.256 159.985,246.421 159.832,243.520 157.164 C 231.938 146.510,221.845 143.648,209.169 147.423 C 204.620 148.778,205.574 147.467,211.165 144.680 C 216.247 142.146,224.413 140.426,231.352 140.426 C 234.586 140.426,234.242 139.820,229.952 137.966 C 220.313 133.801,211.662 133.360,199.807 136.432 C 193.456 138.077,193.651 138.078,193.924 136.394 C 194.129 135.129,195.555 132.279,197.560 129.126 C 198.553 127.563,198.121 127.525,194.376 128.847 C 181.714 133.316,175.036 138.696,174.243 145.068 C 173.674 149.642,170.588 148.570,167.707 142.796 C 166.915 141.208,166.564 140.825,166.217 141.171 C 165.567 141.821,165.647 147.587,166.337 149.843 C 167.015 152.055,166.449 152.805,164.101 152.805 C 163.098 152.805,162.832 152.942,162.998 153.373 C 163.359 154.315,162.475 154.486,161.577 153.648 C 161.114 153.215,160.256 152.743,159.671 152.598 C 157.782 152.129,158.576 151.143,161.267 150.616 L 162.960 150.285 163.008 145.443 C 163.061 140.109,163.904 137.556,166.743 134.139 C 168.354 132.200,168.550 132.296,168.359 134.939 C 168.174 137.495,169.213 140.489,170.805 141.984 L 171.721 142.845 171.958 141.732 C 172.089 141.120,172.264 140.270,172.348 139.844 C 173.572 133.628,192.191 122.527,205.411 120.132 C 208.110 119.643,214.313 119.337,214.313 119.693 M195.716 140.716 C 198.115 142.467,199.006 147.468,197.929 153.149 C 197.226 156.861,196.687 157.646,194.617 157.977 C 192.825 158.264,192.149 158.985,192.471 160.267 C 192.759 161.417,192.454 161.724,189.362 163.400 C 186.587 164.904,184.929 167.115,184.154 170.344 C 183.532 172.938,182.842 172.554,183.224 169.826 C 183.529 167.642,184.583 165.488,186.442 163.250 C 187.241 162.287,188.008 160.862,188.158 160.062 C 188.318 159.204,189.064 157.881,189.992 156.809 C 195.054 150.960,191.196 142.737,185.260 146.724 C 183.452 147.939,183.335 149.290,184.922 150.625 C 186.439 151.902,186.990 151.917,186.753 150.677 C 186.437 149.025,188.459 150.359,189.192 152.287 C 190.276 155.138,187.212 156.005,182.219 154.259 C 174.883 151.694,175.085 145.416,182.628 141.568 C 186.451 139.617,193.575 139.154,195.716 140.716 M164.875 156.387 C 160.342 161.778,154.352 171.055,154.352 172.684 C 154.352 173.044,154.714 174.048,155.156 174.915 C 156.180 176.921,155.988 177.667,153.505 181.346 C 151.479 184.349,148.936 189.434,148.936 190.483 C 148.936 190.996,149.158 190.980,150.596 190.364 C 155.852 188.111,158.248 189.819,155.358 193.759 C 154.634 194.745,153.627 196.583,153.121 197.844 C 151.810 201.107,150.097 200.998,150.097 197.651 C 150.097 195.771,149.600 195.732,147.994 197.485 C 146.428 199.195,145.838 199.184,144.287 197.418 C 141.971 194.781,143.541 189.743,149.147 181.822 C 152.137 177.599,152.347 177.121,152.130 175.046 C 151.737 171.291,158.139 161.233,165.146 154.597 C 168.567 151.356,168.449 152.136,164.875 156.387 M169.324 164.255 C 168.966 167.718,165.740 173.921,162.809 176.780 C 161.515 178.042,160.041 179.639,159.532 180.328 C 158.125 182.235,158.426 180.931,160.163 177.593 C 162.141 173.790,162.015 171.474,159.841 171.688 C 158.196 171.850,158.282 171.247,160.058 170.168 C 162.619 168.611,164.448 166.983,166.420 164.507 C 168.912 161.377,169.627 161.315,169.324 164.255 M88.047 168.961 C 88.281 169.118,88.678 169.637,88.931 170.116 C 89.411 171.029,90.358 171.284,90.598 170.566 C 90.985 169.406,97.641 170.429,98.684 171.808 C 99.239 172.544,99.475 172.631,99.863 172.244 C 100.130 171.978,100.668 171.760,101.058 171.760 C 101.449 171.760,102.218 171.465,102.768 171.105 C 103.742 170.466,103.788 170.477,104.528 171.492 C 104.945 172.065,105.632 172.534,106.054 172.534 C 107.309 172.534,108.217 173.217,109.138 174.855 C 110.026 176.437,110.409 176.699,110.832 176.015 C 111.462 174.996,113.614 176.256,114.227 178.003 C 114.361 178.386,115.034 178.713,115.929 178.830 C 116.742 178.936,117.778 179.144,118.229 179.292 C 118.908 179.515,119.125 179.349,119.476 178.342 C 120.031 176.751,121.964 176.747,122.184 178.337 C 122.258 178.868,122.483 179.505,122.686 179.752 C 122.934 180.054,122.733 180.520,122.068 181.185 C 120.846 182.407,120.814 183.483,121.974 184.401 C 122.464 184.789,122.981 185.411,123.123 185.783 C 123.407 186.532,124.002 186.671,124.371 186.074 C 124.503 185.861,125.032 185.687,125.547 185.687 C 126.920 185.687,127.255 187.355,126.157 188.718 C 124.434 190.859,124.315 191.450,125.426 192.384 C 125.979 192.849,126.543 193.611,126.677 194.076 C 126.815 194.552,127.295 194.975,127.775 195.043 C 128.460 195.141,128.670 195.492,128.850 196.841 C 129.091 198.645,129.630 199.211,131.116 199.220 C 131.634 199.224,132.458 199.601,132.945 200.060 C 133.433 200.518,134.489 200.999,135.291 201.129 C 136.603 201.341,136.770 201.502,136.944 202.714 C 137.104 203.828,137.317 204.083,138.173 204.182 C 139.616 204.348,139.974 204.931,140.112 207.332 C 140.219 209.192,140.359 209.490,141.393 210.072 C 143.433 211.220,141.511 215.474,138.951 215.474 C 138.560 215.474,137.830 215.909,137.331 216.441 C 136.765 217.043,135.997 217.408,135.297 217.408 C 133.366 217.408,134.356 218.649,136.679 219.140 C 138.580 219.541,137.958 221.033,135.783 221.287 C 133.149 221.595,132.895 221.874,133.822 223.445 C 135.449 226.203,134.697 230.174,132.547 230.174 C 130.705 230.174,129.390 231.822,129.401 234.116 C 129.413 236.954,130.182 237.969,131.578 236.991 C 132.711 236.198,133.807 236.198,135.792 236.992 C 137.754 237.777,137.592 238.428,135.366 238.702 C 133.664 238.913,132.248 239.495,131.141 240.440 C 130.822 240.712,130.139 240.995,129.623 241.067 C 129.063 241.146,128.428 241.667,128.048 242.360 C 127.577 243.218,126.973 243.628,125.730 243.932 L 124.048 244.344 125.564 245.126 C 128.603 246.695,130.182 251.481,127.853 252.066 C 127.164 252.238,126.886 252.570,126.886 253.218 C 126.886 254.818,123.951 255.418,122.854 254.042 C 122.396 253.468,121.831 252.998,121.600 252.998 C 121.368 252.998,120.961 252.737,120.696 252.418 C 119.703 251.221,119.286 251.773,119.305 254.255 C 119.321 256.436,118.392 260.144,117.527 261.348 C 117.361 261.579,116.541 261.994,115.705 262.270 C 114.768 262.579,114.105 263.071,113.980 263.549 C 113.519 265.311,109.478 263.442,109.478 261.466 C 109.478 261.064,109.217 260.735,108.897 260.735 C 106.964 260.735,106.458 258.477,107.961 256.553 C 108.345 256.061,108.858 254.668,109.102 253.458 C 109.345 252.248,109.717 250.934,109.927 250.539 C 110.219 249.991,110.120 249.620,109.507 248.967 C 108.463 247.856,108.492 247.647,109.768 247.140 L 110.832 246.716 109.768 246.343 C 109.104 246.110,108.704 245.690,108.704 245.224 C 108.704 244.359,107.973 242.951,107.206 242.338 C 106.842 242.047,106.744 241.438,106.894 240.396 C 107.350 237.229,107.653 236.403,108.743 235.359 C 110.496 233.680,110.191 232.945,107.557 232.504 C 106.394 232.309,106.201 232.133,106.265 231.321 C 106.307 230.797,106.419 228.487,106.514 226.189 C 106.647 222.968,106.837 221.843,107.346 221.281 C 108.863 219.604,107.200 219.294,104.438 220.739 C 102.236 221.890,101.896 222.272,102.465 222.958 C 102.756 223.308,102.644 223.816,102.071 224.759 C 101.403 225.857,101.313 226.442,101.525 228.318 C 101.939 231.969,101.149 234.972,99.199 237.168 C 98.294 238.187,97.451 239.337,97.325 239.723 C 96.822 241.263,91.273 243.714,88.290 243.714 C 87.238 243.714,86.329 244.064,85.168 244.918 C 83.632 246.048,82.615 246.436,79.304 247.153 C 78.559 247.315,77.550 247.661,77.063 247.924 C 76.344 248.310,75.789 248.289,74.150 247.812 C 73.035 247.488,71.767 247.317,71.331 247.431 C 69.995 247.780,64.824 244.642,61.684 241.576 C 61.035 240.943,59.240 239.244,57.693 237.801 C 56.147 236.357,54.628 234.569,54.318 233.827 C 53.645 232.216,53.552 232.099,49.420 227.660 C 43.200 220.977,39.082 214.704,39.590 212.682 C 40.008 211.016,43.907 211.275,43.907 212.969 L 43.907 214.120 46.809 214.001 C 48.404 213.935,50.412 213.848,51.271 213.807 C 52.129 213.767,53.306 213.423,53.886 213.045 C 54.681 212.526,55.123 212.454,55.682 212.753 C 56.734 213.316,57.484 212.909,58.209 211.381 C 58.835 210.063,58.850 210.057,60.879 210.296 L 62.920 210.535 65.502 207.927 C 66.923 206.493,68.085 205.017,68.085 204.648 C 68.085 204.279,68.530 203.321,69.073 202.520 L 70.062 201.064 69.283 200.339 C 68.247 199.373,67.615 199.424,66.635 200.551 C 66.102 201.165,65.555 201.420,65.055 201.290 C 64.494 201.143,64.307 201.272,64.350 201.777 C 64.393 202.264,64.032 202.544,63.117 202.738 C 62.406 202.889,61.631 203.204,61.395 203.440 C 61.160 203.676,60.502 203.868,59.933 203.868 C 59.364 203.868,58.181 204.121,57.305 204.431 C 55.532 205.056,49.445 204.990,48.634 204.337 C 48.375 204.129,47.617 203.841,46.951 203.699 C 46.284 203.557,45.065 202.871,44.243 202.175 C 43.420 201.478,41.155 199.747,39.209 198.326 C 35.591 195.684,35.203 195.223,35.203 193.573 C 35.203 193.052,34.942 192.525,34.623 192.403 C 34.304 192.280,34.043 191.857,34.043 191.462 C 34.043 191.066,33.694 190.557,33.269 190.329 C 32.843 190.101,32.495 189.630,32.495 189.282 C 32.495 188.934,32.233 188.359,31.912 188.004 C 31.092 187.098,31.551 185.011,32.638 184.702 C 36.543 183.592,38.821 180.648,40.035 175.145 C 40.572 172.712,41.372 171.123,41.399 172.437 C 41.418 173.378,42.118 173.829,42.749 173.306 C 43.265 172.877,43.538 172.867,44.156 173.252 C 44.578 173.516,45.268 173.621,45.691 173.487 C 46.113 173.353,46.678 173.425,46.946 173.648 C 47.214 173.870,48.728 174.030,50.312 174.004 C 56.152 173.906,56.319 173.941,57.851 175.597 C 59.996 177.915,62.245 178.111,65.271 176.243 C 66.508 175.480,67.830 174.855,68.209 174.855 C 68.587 174.855,69.419 174.585,70.056 174.256 C 70.810 173.866,71.983 173.697,73.421 173.772 L 75.629 173.888 75.629 175.419 C 75.629 177.937,79.047 178.974,80.779 176.983 C 81.287 176.398,82.042 176.011,82.686 176.003 C 83.701 175.991,85.106 175.244,85.106 174.716 C 85.106 174.579,84.777 174.468,84.374 174.468 C 82.275 174.468,83.118 170.507,85.434 169.485 C 87.490 168.578,87.476 168.580,88.047 168.961 M203.650 170.590 C 205.450 171.274,204.178 173.317,202.319 172.727 C 201.141 172.353,197.298 173.215,194.976 174.375 C 191.995 175.864,191.940 175.869,193.176 174.550 C 194.647 172.981,198.450 170.989,200.701 170.610 C 201.698 170.441,202.547 170.283,202.586 170.258 C 202.625 170.233,203.104 170.383,203.650 170.590 M85.651 171.819 C 85.492 172.076,85.809 172.580,86.401 173.011 C 87.395 173.735,87.720 174.998,87.131 175.842 C 86.665 176.510,84.100 177.950,83.376 177.950 C 83.006 177.950,82.163 178.405,81.502 178.961 C 79.252 180.854,74.518 179.565,73.738 176.847 C 73.224 175.053,69.759 175.687,65.454 178.362 C 62.828 179.995,59.161 179.594,56.899 177.426 L 55.513 176.098 49.317 175.860 C 42.398 175.595,41.691 175.778,41.256 177.955 C 40.718 180.646,38.102 184.261,35.812 185.480 C 33.197 186.870,33.197 186.527,35.820 189.707 C 37.736 192.031,37.957 192.476,37.748 193.591 C 37.524 194.788,37.632 194.933,39.936 196.524 C 41.269 197.445,43.281 198.972,44.408 199.917 C 46.608 201.764,47.726 202.174,52.196 202.773 C 54.489 203.080,55.466 203.040,57.032 202.577 C 58.111 202.257,59.458 201.896,60.024 201.773 C 60.591 201.650,61.548 201.027,62.151 200.388 C 62.754 199.749,63.553 199.226,63.927 199.226 C 64.300 199.226,65.256 198.878,66.050 198.453 C 69.771 196.458,73.877 199.662,71.389 202.619 C 70.843 203.267,70.132 204.547,69.809 205.463 C 69.471 206.421,68.641 207.607,67.853 208.257 C 67.100 208.877,66.059 210.059,65.539 210.882 C 64.627 212.326,64.518 212.379,62.453 212.379 C 60.691 212.379,60.144 212.549,59.355 213.337 C 58.042 214.650,57.130 215.087,55.706 215.087 C 55.040 215.087,54.114 215.292,53.650 215.543 C 53.185 215.795,51.412 216.033,49.710 216.073 C 46.409 216.151,43.816 216.542,43.530 217.005 C 43.251 217.458,47.531 222.815,51.767 227.312 C 54.225 229.922,55.766 231.887,55.926 232.616 C 56.231 234.005,60.888 238.672,66.344 243.057 C 67.810 244.235,71.143 245.716,71.639 245.410 C 71.846 245.282,72.741 245.380,73.628 245.628 C 76.261 246.363,82.030 244.972,84.541 242.998 C 85.095 242.562,86.362 242.101,87.358 241.974 C 90.921 241.517,94.316 240.256,95.252 239.042 C 95.736 238.414,96.871 236.999,97.776 235.898 C 99.528 233.764,99.531 233.749,99.639 228.046 C 99.695 225.115,100.134 222.278,100.759 220.805 C 101.640 218.728,106.950 217.318,109.056 218.602 C 109.910 219.122,111.123 219.429,112.496 219.471 C 114.873 219.544,115.554 220.133,115.145 221.765 C 114.735 223.397,112.485 224.541,110.618 224.068 C 109.642 223.820,109.003 223.814,108.857 224.051 C 108.523 224.590,108.898 224.837,110.292 225.000 C 113.387 225.360,113.498 228.062,110.458 229.070 C 108.083 229.858,107.871 230.364,109.614 231.093 C 112.315 232.221,112.658 233.956,110.618 236.170 C 108.821 238.120,108.539 240.011,109.820 241.506 C 112.501 244.634,113.373 249.059,111.818 251.643 C 111.434 252.282,110.996 253.495,110.846 254.339 C 110.695 255.182,110.326 256.349,110.025 256.931 C 109.292 258.348,109.334 258.703,110.267 258.999 C 110.738 259.149,111.149 259.710,111.284 260.387 C 111.571 261.820,112.055 262.127,112.887 261.405 C 113.246 261.094,114.016 260.726,114.599 260.587 C 116.287 260.186,117.328 257.725,117.372 254.028 C 117.420 249.995,118.795 248.575,121.094 250.187 C 123.851 252.121,124.469 252.237,125.728 251.062 C 127.711 249.209,127.152 247.945,123.694 246.463 C 121.930 245.707,121.642 245.280,121.838 243.714 C 121.947 242.841,123.026 242.166,124.311 242.166 C 125.160 242.166,125.843 241.748,126.945 240.555 C 128.636 238.724,128.648 238.675,127.838 237.108 C 127.198 235.871,126.748 231.392,127.195 230.714 C 127.344 230.488,128.511 229.815,129.787 229.219 C 133.075 227.684,133.360 226.934,131.840 223.805 L 130.990 222.057 131.822 220.933 C 132.444 220.091,132.598 219.472,132.435 218.468 C 132.122 216.540,132.813 215.474,134.376 215.474 C 135.233 215.474,135.945 215.158,136.557 214.507 C 137.057 213.975,137.813 213.540,138.238 213.540 C 140.068 213.540,140.520 212.395,139.258 210.958 C 138.394 209.974,138.104 209.260,138.104 208.116 C 138.104 206.750,137.967 206.530,136.820 206.050 C 135.902 205.667,135.432 205.149,135.169 204.234 C 134.907 203.320,134.502 202.873,133.756 202.673 C 133.180 202.519,132.246 202.029,131.680 201.584 C 131.113 201.138,130.238 200.774,129.735 200.774 C 128.607 200.774,127.381 199.600,127.024 198.177 C 126.876 197.589,126.350 196.788,125.854 196.398 C 125.358 196.008,124.952 195.466,124.952 195.194 C 124.952 194.922,124.429 194.152,123.791 193.484 C 122.583 192.221,122.315 190.824,123.053 189.642 C 123.400 189.087,123.215 188.689,122.023 187.425 C 120.155 185.444,119.152 183.787,119.150 182.676 C 119.150 182.175,118.857 181.704,118.472 181.584 C 118.100 181.469,117.493 181.213,117.123 181.016 C 116.754 180.819,115.845 180.658,115.104 180.658 C 114.050 180.658,113.566 180.400,112.883 179.477 C 112.274 178.653,111.716 178.315,111.034 178.358 C 109.339 178.463,109.193 178.377,107.809 176.452 C 106.116 174.094,104.190 173.558,100.069 174.295 C 98.829 174.516,98.422 174.408,97.554 173.622 C 96.031 172.244,93.012 171.560,91.840 172.329 C 90.582 173.153,88.843 173.070,88.008 172.147 C 87.233 171.291,86.076 171.130,85.651 171.819 M201.027 176.612 C 201.397 177.577,200.911 177.743,196.970 177.999 C 194.913 178.133,192.882 178.372,192.456 178.530 C 191.874 178.747,191.921 178.641,192.650 178.100 C 195.039 176.323,200.541 175.347,201.027 176.612 M224.349 179.847 C 239.352 184.517,251.057 202.782,249.503 219.097 C 249.193 222.347,249.227 223.064,249.712 223.600 C 251.020 225.045,248.939 228.193,243.312 233.282 C 235.561 240.291,233.566 242.373,231.835 245.261 C 230.656 247.228,230.179 247.789,230.355 247.002 C 230.753 245.218,232.169 243.023,235.142 239.582 C 242.952 230.545,245.261 225.043,245.261 215.474 C 245.261 201.609,234.605 184.869,222.946 180.416 C 219.737 179.191,220.824 178.750,224.349 179.847 M202.735 180.762 C 208.505 184.650,207.767 192.003,200.935 198.704 C 196.880 202.682,196.476 202.520,199.826 198.259 C 202.565 194.776,203.868 191.784,203.868 188.975 C 203.867 185.207,201.577 181.928,199.661 182.953 C 198.675 183.481,198.512 185.300,199.452 185.300 C 200.231 185.300,199.949 186.227,199.121 186.387 C 198.088 186.588,196.905 185.062,196.905 183.529 C 196.905 180.500,200.098 178.984,202.735 180.762 M318.279 180.672 C 321.980 181.786,318.402 183.034,311.227 183.131 C 300.828 183.272,297.384 190.644,300.745 205.568 C 301.726 209.924,301.806 210.709,301.373 211.758 C 299.400 216.539,299.501 220.258,301.728 224.925 C 304.989 231.759,298.954 229.197,294.086 221.682 C 289.435 214.503,289.117 209.293,292.833 201.161 C 293.875 198.880,294.396 197.130,294.533 195.449 C 295.410 184.734,307.265 177.357,318.279 180.672 M326.791 184.862 C 333.030 186.500,336.883 191.547,335.793 196.651 C 334.663 201.942,331.448 204.002,318.470 207.755 C 311.216 209.852,309.158 210.703,307.411 212.325 C 303.579 215.885,303.712 222.735,307.713 227.981 C 308.728 229.312,308.979 230.174,308.350 230.174 C 306.577 230.174,302.901 222.107,302.901 218.215 C 302.901 213.041,304.262 211.408,313.066 206.017 C 321.858 200.633,323.319 199.489,324.642 196.956 C 326.555 193.294,325.930 189.360,322.932 186.204 C 320.901 184.065,322.129 183.638,326.791 184.862 M222.667 186.783 C 230.789 192.059,238.663 206.813,239.334 218.015 C 239.920 227.807,237.557 234.217,231.198 240.085 C 227.332 243.652,225.406 246.496,225.990 247.778 C 226.363 248.597,226.273 248.851,225.270 249.793 C 223.743 251.227,221.027 256.736,220.436 259.599 C 219.849 262.440,219.341 262.563,219.345 259.865 C 219.350 256.674,220.040 253.135,221.488 248.876 C 222.223 246.715,222.824 244.810,222.824 244.641 C 222.824 244.473,220.779 246.328,218.279 248.765 C 215.779 251.201,212.185 254.579,210.293 256.271 C 194.661 270.249,188.155 286.240,192.033 301.152 C 193.238 305.786,193.235 305.746,192.242 304.117 C 189.306 299.302,183.120 279.422,181.240 268.765 C 177.684 248.605,179.916 236.082,189.349 223.270 C 191.971 219.708,191.847 220.485,188.850 226.391 C 181.550 240.778,180.815 258.932,186.788 277.339 C 188.534 282.720,188.774 282.841,190.126 279.027 C 193.812 268.635,201.167 258.766,210.832 251.245 C 228.412 237.565,233.059 228.786,229.833 215.347 C 228.875 211.353,228.854 211.089,229.600 212.379 C 231.711 216.028,233.105 223.963,232.534 229.074 C 231.983 233.996,232.792 233.637,234.604 228.155 C 238.843 215.329,231.795 194.040,220.696 186.149 C 218.684 184.719,220.278 185.232,222.667 186.783 M311.412 185.623 C 311.412 185.801,310.575 186.989,309.553 188.263 C 308.530 189.537,307.462 191.139,307.179 191.823 C 306.101 194.425,304.629 191.227,305.658 188.521 C 306.440 186.466,311.412 183.962,311.412 185.623 M318.685 187.006 C 324.999 190.305,323.271 198.270,316.260 198.178 C 312.106 198.123,308.728 196.410,309.364 194.681 C 311.325 189.356,315.928 185.566,318.685 187.006 M293.524 187.168 C 293.907 187.412,293.856 187.930,293.285 189.591 C 292.885 190.753,292.327 192.997,292.044 194.577 C 291.705 196.472,291.090 198.182,290.239 199.596 C 285.204 207.958,286.863 217.832,294.920 227.449 C 296.500 229.335,296.627 229.626,296.120 230.187 C 295.306 231.087,295.365 231.187,297.266 232.137 C 299.609 233.307,302.347 235.629,305.365 239.006 C 306.759 240.565,308.608 242.355,309.476 242.983 L 311.052 244.125 310.942 248.078 L 310.832 252.031 305.230 252.031 L 299.629 252.031 298.759 247.776 C 297.053 239.429,294.274 235.409,284.635 227.347 C 279.164 222.772,275.770 219.106,274.358 216.248 L 273.308 214.120 273.179 200.985 C 273.059 188.770,273.098 187.815,273.736 187.349 C 274.515 186.779,292.651 186.614,293.524 187.168 M352.696 187.331 C 352.930 187.633,352.984 192.675,352.840 200.782 L 352.611 213.749 351.334 216.344 C 350.000 219.054,345.707 223.566,338.042 230.315 C 331.884 235.738,328.611 241.192,327.086 248.577 C 326.219 252.774,326.481 252.612,320.552 252.605 C 314.218 252.598,314.555 252.845,314.476 248.156 C 314.411 244.325,314.416 244.301,315.520 243.526 C 316.131 243.097,317.676 241.681,318.953 240.378 C 320.231 239.076,322.060 237.622,323.017 237.148 C 325.887 235.728,330.439 230.992,330.159 229.718 C 329.986 228.931,330.258 228.204,331.284 226.713 C 334.338 222.274,335.197 217.972,334.548 210.376 L 334.096 205.084 335.564 203.460 C 339.188 199.448,339.716 193.846,336.898 189.287 C 335.429 186.911,335.625 186.847,344.428 186.847 C 350.287 186.847,352.419 186.972,352.696 187.331 M179.293 191.627 C 180.791 192.723,179.769 193.391,176.712 193.314 C 172.678 193.212,169.137 195.449,165.314 200.515 C 164.324 201.828,162.987 203.465,162.342 204.155 L 161.171 205.408 162.356 207.056 C 165.901 211.988,169.046 212.170,172.704 207.653 C 176.485 202.984,183.640 196.905,185.355 196.905 C 187.068 196.905,186.438 200.416,183.672 206.286 C 181.238 211.450,183.135 210.939,186.265 205.588 C 187.768 203.017,188.395 202.515,188.395 203.881 C 188.395 205.573,184.669 211.823,180.375 217.336 C 177.803 220.637,177.573 221.362,179.352 220.551 C 180.776 219.903,180.790 220.102,179.461 222.067 C 177.260 225.319,175.105 230.174,175.862 230.174 C 175.999 230.174,177.233 229.124,178.606 227.840 C 185.108 221.757,187.787 221.740,183.804 227.805 C 177.475 237.445,175.513 249.379,178.176 262.050 C 179.142 266.648,178.101 265.394,176.280 259.768 C 174.261 253.526,173.627 248.725,174.671 247.572 C 174.996 247.213,175.502 245.459,175.796 243.673 C 176.090 241.887,176.775 239.040,177.318 237.347 C 178.812 232.691,178.305 232.910,175.121 238.298 C 172.131 243.359,170.611 248.270,170.603 252.901 C 170.595 256.916,169.330 253.888,168.622 248.162 C 167.877 242.136,168.612 237.768,171.634 230.249 C 173.720 225.062,173.834 225.324,170.026 226.533 C 168.254 227.096,166.311 227.455,165.400 227.388 L 163.830 227.273 166.818 226.173 C 171.794 224.342,176.761 220.277,180.580 214.910 C 181.809 213.182,181.646 213.032,179.408 213.837 C 176.871 214.749,176.791 214.289,179.046 211.759 C 183.092 207.219,186.618 198.080,183.725 199.628 C 181.970 200.567,176.827 205.473,174.737 208.202 C 172.065 211.690,171.901 212.806,173.888 213.978 C 175.787 215.098,175.606 215.574,173.404 215.253 C 168.221 214.498,164.084 212.373,161.787 209.284 C 159.537 206.261,159.450 206.190,158.021 206.190 C 155.187 206.190,149.555 203.427,148.546 201.542 C 148.090 200.689,147.978 200.656,151.838 202.516 C 153.287 203.214,155.003 203.696,156.407 203.799 L 158.655 203.965 161.762 200.808 C 168.477 193.983,176.657 189.700,179.293 191.627 M303.288 193.809 C 303.288 196.387,308.773 200.284,312.969 200.687 C 315.024 200.885,315.583 201.664,314.023 202.158 C 313.544 202.309,311.448 203.540,309.363 204.892 C 307.279 206.244,305.414 207.350,305.218 207.350 C 303.915 207.350,302.072 197.810,302.473 193.133 C 302.561 192.108,303.288 192.711,303.288 193.809 M162.863 198.078 C 162.863 198.541,161.772 199.038,161.453 198.720 C 161.115 198.381,161.689 197.679,162.305 197.679 C 162.612 197.679,162.863 197.858,162.863 198.078 M160.542 200.726 C 160.542 200.913,160.296 201.270,159.996 201.519 C 159.390 202.022,158.769 201.450,159.188 200.774 C 159.482 200.297,160.542 200.260,160.542 200.726 M216.097 207.157 C 217.084 210.404,217.157 211.133,217.185 217.988 L 217.215 225.338 215.910 228.363 C 213.985 232.827,212.038 235.487,206.966 240.585 C 198.807 248.784,194.507 256.452,191.110 268.859 C 189.126 276.106,189.139 276.107,187.416 268.542 C 184.263 254.700,185.702 243.216,192.204 230.317 C 195.083 224.606,196.106 223.210,194.717 226.886 C 191.503 235.394,189.612 243.508,189.308 250.097 C 188.977 257.251,190.015 262.342,191.109 258.933 C 193.510 251.455,198.906 243.404,207.541 234.415 C 216.878 224.697,218.547 217.284,214.461 203.682 C 214.299 203.144,214.353 203.022,214.633 203.288 C 214.856 203.501,215.515 205.242,216.097 207.157 M331.637 208.511 C 334.339 219.593,328.024 230.948,319.158 230.948 C 316.234 230.948,316.409 229.049,319.707 224.999 C 321.828 222.395,321.780 221.856,319.394 221.498 C 316.054 220.997,312.869 222.488,311.203 225.331 C 309.910 227.536,309.527 227.429,308.356 224.536 C 304.948 216.120,306.860 213.776,320.309 209.876 C 324.245 208.735,327.901 207.620,328.433 207.398 C 330.228 206.650,331.272 207.013,331.637 208.511 M110.437 221.861 C 111.253 222.498,112.177 222.496,112.303 221.857 C 112.345 221.644,111.770 221.423,111.025 221.366 C 109.737 221.268,109.709 221.292,110.437 221.861 M352.720 226.601 L 352.828 231.282 349.625 233.712 C 342.150 239.383,338.830 243.654,337.341 249.516 L 336.701 252.031 334.441 252.348 C 329.910 252.982,329.321 251.584,331.492 245.347 C 333.486 239.621,336.086 236.133,342.458 230.636 C 344.425 228.940,347.340 226.237,348.936 224.630 C 352.593 220.949,352.589 220.946,352.720 226.601 M275.350 223.550 C 276.013 224.375,278.610 226.752,281.121 228.833 C 291.769 237.658,295.506 243.081,295.690 249.980 L 295.745 252.031 292.474 252.031 L 289.203 252.031 288.700 249.516 C 287.605 244.039,284.691 240.135,277.462 234.466 C 273.072 231.022,273.114 231.101,273.114 226.396 C 273.114 221.436,273.380 221.098,275.350 223.550 M317.215 224.224 C 317.215 224.355,316.700 225.049,316.072 225.765 C 312.033 230.364,314.718 234.525,320.928 233.290 C 324.760 232.529,324.811 233.247,321.066 235.243 C 319.479 236.089,318.325 237.073,317.386 238.380 C 315.872 240.487,314.325 241.345,312.517 241.080 C 311.416 240.919,301.846 232.441,301.398 231.230 C 301.148 230.554,304.954 231.203,307.712 232.306 C 310.661 233.486,310.870 233.422,311.223 231.236 C 311.632 228.708,312.689 226.623,314.262 225.242 C 315.523 224.135,317.215 223.551,317.215 224.224 M277.550 238.514 C 282.732 242.514,284.920 245.771,285.385 250.171 L 285.597 252.180 280.526 252.299 C 272.682 252.483,273.173 253.137,273.136 242.456 C 273.110 234.752,272.909 234.932,277.550 238.514 M352.716 244.322 L 352.611 252.031 346.712 252.138 L 340.812 252.245 340.812 251.062 C 340.812 246.530,344.644 240.957,350.368 237.166 C 352.825 235.539,352.836 235.571,352.716 244.322 " stroke="none" fill="#ff0000" fill-rule="evenodd"></path></g></svg>