<svg id="svg" version="1.1" width="400" height="225" viewBox="0 0 400 225" xmlns="http://www.w3.org/2000/svg" xmlns:xlink="http://www.w3.org/1999/xlink" ><g id="svgg"><path id="path0" d="M0.833 76.250 L 0.833 112.500 200.417 112.500 L 400.000 112.500 400.000 76.250 L 400.000 40.000 200.417 40.000 L 0.833 40.000 0.833 76.250 M14.707 72.813 C 16.510 73.869,17.131 76.171,15.724 76.579 C 13.705 77.163,13.650 77.160,13.322 76.416 C 12.766 75.154,11.239 75.096,10.378 76.303 C 9.671 77.294,9.543 81.405,10.180 82.654 C 11.094 84.445,13.958 84.232,13.958 82.372 L 13.958 81.667 12.917 81.667 L 11.875 81.667 11.875 80.208 L 11.875 78.750 14.375 78.750 L 16.875 78.750 16.875 81.753 L 16.875 84.756 15.926 85.592 C 12.569 88.547,8.084 87.249,6.860 82.968 C 4.839 75.903,9.558 69.796,14.707 72.813 M145.332 72.813 C 147.135 73.869,147.756 76.171,146.349 76.579 C 144.330 77.163,144.275 77.160,143.947 76.416 C 143.391 75.154,141.864 75.096,141.003 76.303 C 140.296 77.294,140.168 81.405,140.805 82.654 C 141.719 84.445,144.583 84.232,144.583 82.372 L 144.583 81.667 143.542 81.667 L 142.500 81.667 142.500 80.208 L 142.500 78.750 145.000 78.750 L 147.500 78.750 147.500 81.746 L 147.500 84.742 146.834 85.393 C 143.562 88.592,138.735 87.340,137.485 82.968 C 135.464 75.903,140.183 69.796,145.332 72.813 M177.386 72.774 C 179.977 74.206,181.080 78.789,179.871 83.098 C 178.287 88.744,171.625 88.515,170.049 82.760 C 168.209 76.044,172.568 70.112,177.386 72.774 M236.136 72.774 C 238.727 74.206,239.830 78.789,238.621 83.098 C 237.037 88.744,230.375 88.515,228.799 82.760 C 226.959 76.044,231.318 70.112,236.136 72.774 M373.087 72.404 C 377.868 73.824,378.297 84.583,373.657 86.690 C 369.988 88.357,366.705 85.707,366.329 80.776 C 365.873 74.781,368.816 71.135,373.087 72.404 M26.875 77.194 C 26.875 83.006,27.240 84.122,28.997 83.681 C 30.084 83.408,30.208 82.766,30.208 77.416 L 30.208 72.500 31.875 72.500 L 33.542 72.500 33.542 77.352 C 33.542 85.168,32.586 87.100,28.736 87.074 C 24.565 87.046,23.887 85.812,23.787 78.073 L 23.715 72.500 25.295 72.500 L 26.875 72.500 26.875 77.194 M47.916 77.865 C 47.915 80.815,47.820 83.568,47.705 83.983 C 46.564 88.089,41.322 88.258,40.100 84.229 C 39.496 82.240,39.600 81.982,41.118 81.703 C 42.950 81.365,42.917 81.355,42.917 82.277 C 42.917 83.522,43.768 84.169,44.402 83.406 C 44.623 83.139,44.703 81.872,44.755 77.781 L 44.823 72.500 46.370 72.500 L 47.917 72.500 47.916 77.865 M61.210 73.490 C 61.429 74.391,62.067 76.788,62.804 79.479 C 62.961 80.052,63.431 81.815,63.847 83.396 C 64.264 84.977,64.657 86.407,64.720 86.573 C 64.816 86.822,64.537 86.875,63.141 86.875 C 61.970 86.875,61.418 86.794,61.358 86.615 C 61.310 86.471,61.169 85.956,61.044 85.469 L 60.817 84.583 59.088 84.583 L 57.358 84.583 57.102 85.729 L 56.845 86.875 55.179 86.875 C 53.678 86.875,53.525 86.838,53.631 86.505 C 53.750 86.129,53.953 85.376,54.990 81.458 C 55.309 80.255,55.874 78.146,56.247 76.771 C 56.619 75.396,57.014 73.872,57.125 73.385 L 57.325 72.500 59.148 72.500 L 60.970 72.500 61.210 73.490 M78.479 72.908 C 80.575 74.186,80.446 78.893,78.280 80.210 C 77.703 80.561,77.689 80.600,78.061 80.799 C 78.443 81.004,79.452 82.828,79.802 83.946 C 79.894 84.239,80.163 84.993,80.401 85.622 C 80.639 86.251,80.833 86.790,80.833 86.820 C 80.833 86.850,79.990 86.875,78.958 86.875 C 77.871 86.875,77.083 86.789,77.083 86.671 C 77.083 86.190,75.135 81.539,74.834 81.302 C 74.039 80.676,73.958 80.921,73.958 83.958 L 73.958 86.875 72.396 86.875 L 70.833 86.875 70.833 79.688 L 70.833 72.500 74.323 72.501 C 77.416 72.501,77.888 72.548,78.479 72.908 M93.292 73.177 C 93.523 73.960,93.906 75.389,94.787 78.750 C 95.576 81.758,96.016 83.387,96.364 84.583 C 96.514 85.099,96.698 85.826,96.773 86.198 L 96.908 86.875 95.240 86.875 L 93.571 86.875 93.332 85.721 L 93.092 84.568 91.286 84.628 L 89.479 84.688 89.285 85.781 L 89.091 86.875 87.438 86.875 C 85.833 86.875,85.788 86.861,85.885 86.406 C 85.976 85.984,86.750 83.043,87.570 80.000 C 87.740 79.370,88.174 77.729,88.534 76.354 C 88.894 74.979,89.285 73.549,89.402 73.177 L 89.616 72.500 91.354 72.500 L 93.093 72.500 93.292 73.177 M110.625 74.271 L 110.625 76.042 109.063 76.042 L 107.500 76.042 107.500 81.458 L 107.500 86.875 105.938 86.875 L 104.375 86.875 104.375 81.458 L 104.375 76.042 102.708 76.042 L 101.042 76.042 101.042 74.271 L 101.042 72.500 105.833 72.500 L 110.625 72.500 110.625 74.271 M120.417 79.688 L 120.417 86.875 118.854 86.875 L 117.292 86.875 117.292 79.688 L 117.292 72.500 118.854 72.500 L 120.417 72.500 120.417 79.688 M162.105 72.976 C 164.285 74.443,163.781 80.417,161.477 80.417 C 161.251 80.417,161.294 80.512,161.622 80.742 C 162.249 81.182,163.776 84.425,164.243 86.310 L 164.387 86.891 162.582 86.831 L 160.777 86.771 159.814 84.249 C 158.770 81.512,158.487 81.042,157.891 81.042 C 157.527 81.042,157.500 81.244,157.500 83.958 L 157.500 86.875 155.938 86.875 L 154.375 86.875 154.375 79.688 L 154.375 72.500 157.886 72.500 C 161.198 72.500,161.437 72.527,162.105 72.976 M190.247 77.623 L 190.313 82.745 190.897 83.248 C 191.635 83.882,192.115 83.882,192.853 83.248 L 193.438 82.745 193.500 77.623 L 193.562 72.500 195.115 72.500 L 196.667 72.500 196.667 77.805 C 196.667 85.513,195.868 87.083,191.947 87.083 C 187.883 87.083,187.083 85.558,187.083 77.805 L 187.083 72.500 188.632 72.500 L 190.182 72.500 190.247 77.623 M210.970 72.937 C 212.135 73.657,212.396 74.378,212.396 76.875 C 212.396 80.300,211.594 81.298,208.736 81.427 L 207.083 81.502 207.083 84.189 L 207.083 86.875 205.417 86.875 L 203.750 86.875 203.750 79.826 C 203.750 75.950,203.813 72.715,203.889 72.639 C 204.281 72.247,210.260 72.498,210.970 72.937 M253.499 74.010 L 253.438 75.521 251.198 75.580 L 248.958 75.639 248.958 76.882 L 248.958 78.125 250.947 78.125 L 252.936 78.125 252.874 79.531 L 252.813 80.938 250.885 80.997 L 248.958 81.057 248.958 83.966 L 248.958 86.875 247.396 86.875 L 245.833 86.875 245.833 79.688 L 245.833 72.500 249.697 72.500 L 253.560 72.500 253.499 74.010 M277.800 73.142 C 279.269 74.432,279.284 78.318,277.821 78.880 C 277.378 79.050,277.419 79.239,277.952 79.482 C 278.962 79.941,279.271 80.719,279.271 82.808 C 279.271 86.242,278.372 86.829,273.073 86.858 L 270.000 86.875 270.000 79.688 L 270.000 72.500 273.534 72.500 L 277.069 72.500 277.800 73.142 M294.267 73.360 C 295.823 75.060,295.730 78.071,294.069 79.734 L 293.191 80.614 293.652 81.048 C 294.094 81.462,294.389 82.057,295.125 84.010 C 295.309 84.497,295.590 85.204,295.750 85.580 C 296.281 86.826,296.225 86.875,294.286 86.875 L 292.531 86.875 291.682 84.678 C 291.215 83.469,290.833 82.404,290.833 82.310 C 290.833 81.933,289.944 81.042,289.568 81.042 C 289.191 81.042,289.167 81.217,289.167 83.958 L 289.167 86.875 287.604 86.875 L 286.042 86.875 286.042 79.674 L 286.042 72.474 289.808 72.539 L 293.575 72.604 294.267 73.360 M308.710 73.490 C 308.929 74.391,309.567 76.788,310.304 79.479 C 310.461 80.052,310.931 81.815,311.347 83.396 C 311.764 84.977,312.157 86.407,312.220 86.573 C 312.316 86.822,312.037 86.875,310.641 86.875 C 309.470 86.875,308.918 86.794,308.858 86.615 C 308.810 86.471,308.669 85.956,308.544 85.469 L 308.317 84.583 306.588 84.583 L 304.858 84.583 304.602 85.729 L 304.345 86.875 302.679 86.875 C 301.178 86.875,301.025 86.838,301.131 86.505 C 301.250 86.129,301.453 85.376,302.490 81.458 C 302.809 80.255,303.374 78.146,303.747 76.771 C 304.119 75.396,304.514 73.872,304.625 73.385 L 304.825 72.500 306.648 72.500 L 308.470 72.500 308.710 73.490 M322.563 74.323 C 322.756 75.326,323.061 76.990,323.242 78.021 C 323.784 81.107,323.777 81.094,324.074 79.479 C 324.221 78.677,324.492 77.224,324.675 76.250 C 324.858 75.276,325.066 74.034,325.137 73.490 L 325.266 72.500 327.425 72.500 L 329.583 72.500 329.583 79.688 L 329.583 86.875 328.229 86.875 L 326.875 86.875 326.847 81.823 C 326.831 79.044,326.780 77.005,326.733 77.292 C 326.686 77.578,326.510 78.563,326.341 79.479 C 326.171 80.396,325.895 81.896,325.727 82.813 C 325.558 83.729,325.319 85.018,325.196 85.677 L 324.970 86.875 323.735 86.875 C 322.888 86.875,322.499 86.793,322.496 86.615 C 322.494 86.471,322.363 85.651,322.206 84.792 C 322.049 83.932,321.714 82.104,321.462 80.729 C 321.211 79.354,320.930 77.807,320.839 77.292 C 320.735 76.700,320.665 78.292,320.650 81.615 L 320.625 86.875 319.375 86.875 L 318.125 86.875 318.125 79.688 L 318.125 72.500 320.169 72.500 L 322.212 72.500 322.563 74.323 M343.640 72.913 C 344.675 73.553,345.105 74.746,345.102 76.974 C 345.098 80.213,344.196 81.300,341.406 81.428 L 339.792 81.502 339.792 84.189 L 339.792 86.875 338.125 86.875 L 336.458 86.875 336.458 79.688 L 336.458 72.500 339.715 72.500 C 342.599 72.500,343.048 72.547,343.640 72.913 M360.625 74.271 L 360.625 76.042 359.063 76.042 L 357.500 76.042 357.500 81.458 L 357.500 86.875 355.938 86.875 L 354.375 86.875 354.375 81.458 L 354.375 76.042 352.708 76.042 L 351.042 76.042 351.042 74.271 L 351.042 72.500 355.833 72.500 L 360.625 72.500 360.625 74.271 M388.333 76.158 C 389.294 78.170,390.132 79.849,390.196 79.888 C 390.260 79.928,390.313 78.305,390.313 76.282 L 390.313 72.604 391.823 72.543 L 393.333 72.482 393.333 79.678 L 393.333 86.875 391.818 86.875 L 390.302 86.875 388.432 82.996 L 386.563 79.116 386.627 82.996 L 386.692 86.875 385.117 86.875 L 383.542 86.875 383.542 79.688 L 383.542 72.500 385.064 72.500 L 386.587 72.500 388.333 76.158 M73.958 76.875 L 73.958 78.333 74.674 78.333 C 76.383 78.333,77.194 77.381,76.580 76.095 C 76.273 75.451,76.199 75.417,75.108 75.417 L 73.958 75.417 73.958 76.875 M157.500 76.902 L 157.500 78.386 158.581 78.283 C 161.084 78.042,161.133 75.417,158.634 75.417 L 157.500 75.417 157.500 76.902 M207.083 76.979 L 207.083 78.542 207.813 78.542 C 208.264 78.542,208.700 78.383,208.958 78.125 C 209.216 77.867,209.375 77.431,209.375 76.979 C 209.375 76.528,209.216 76.091,208.958 75.833 C 208.700 75.575,208.264 75.417,207.813 75.417 L 207.083 75.417 207.083 76.979 M273.125 76.800 L 273.125 78.183 274.219 78.054 C 276.510 77.782,276.452 75.417,274.155 75.417 L 273.125 75.417 273.125 76.800 M289.252 75.702 C 288.983 76.405,289.266 78.224,289.656 78.299 C 291.438 78.638,292.887 76.875,291.756 75.744 C 291.333 75.322,289.411 75.289,289.252 75.702 M339.792 76.979 L 339.792 78.542 340.513 78.542 C 341.417 78.542,342.083 77.879,342.083 76.979 C 342.083 76.080,341.417 75.417,340.513 75.417 L 339.792 75.417 339.792 76.979 M173.899 76.123 C 171.726 78.137,173.148 84.482,175.581 83.626 C 177.967 82.787,177.447 75.625,175.000 75.625 C 174.690 75.625,174.194 75.849,173.899 76.123 M232.649 76.123 C 230.476 78.137,231.898 84.482,234.331 83.626 C 236.717 82.787,236.197 75.625,233.750 75.625 C 233.440 75.625,232.944 75.849,232.649 76.123 M370.418 76.216 C 368.963 77.671,369.342 82.852,370.957 83.588 C 372.797 84.427,374.015 81.590,373.445 77.791 C 373.269 76.615,372.408 75.625,371.563 75.625 C 371.233 75.625,370.771 75.864,370.418 76.216 M91.195 76.875 C 91.090 77.325,90.614 79.512,90.300 80.990 C 90.207 81.427,90.271 81.458,91.246 81.458 C 92.438 81.458,92.405 81.555,91.949 79.418 C 91.760 78.535,91.541 77.484,91.461 77.083 C 91.326 76.404,91.308 76.390,91.195 76.875 M58.589 78.815 C 57.979 81.622,57.942 81.458,59.191 81.458 C 60.195 81.458,60.250 81.431,60.129 80.990 C 60.059 80.732,59.849 79.771,59.664 78.854 C 59.176 76.452,59.103 76.450,58.589 78.815 M306.089 78.815 C 305.479 81.622,305.442 81.458,306.691 81.458 C 307.695 81.458,307.750 81.431,307.629 80.990 C 307.559 80.732,307.349 79.771,307.164 78.854 C 306.676 76.452,306.603 76.450,306.089 78.815 M273.125 82.292 L 273.125 83.750 274.219 83.747 C 275.433 83.743,275.661 83.646,276.010 82.982 C 276.677 81.717,275.961 80.833,274.271 80.833 L 273.125 80.833 273.125 82.292 " stroke="none" fill="#040404" fill-rule="evenodd"></path><path id="path1" d="M11.615 72.230 C 11.872 72.280,12.294 72.280,12.552 72.230 C 12.810 72.181,12.599 72.140,12.083 72.140 C 11.568 72.140,11.357 72.181,11.615 72.230 M142.240 72.230 C 142.497 72.280,142.919 72.280,143.177 72.230 C 143.435 72.181,143.224 72.140,142.708 72.140 C 142.193 72.140,141.982 72.181,142.240 72.230 M174.635 72.227 C 174.836 72.279,175.164 72.279,175.365 72.227 C 175.565 72.175,175.401 72.132,175.000 72.132 C 174.599 72.132,174.435 72.175,174.635 72.227 M233.385 72.227 C 233.586 72.279,233.914 72.279,234.115 72.227 C 234.315 72.175,234.151 72.132,233.750 72.132 C 233.349 72.132,233.185 72.175,233.385 72.227 M371.200 72.231 C 371.459 72.281,371.834 72.279,372.034 72.226 C 372.233 72.174,372.021 72.134,371.563 72.136 C 371.104 72.138,370.941 72.181,371.200 72.231 M13.142 72.367 C 13.190 72.408,13.510 72.504,13.854 72.581 C 14.311 72.683,14.395 72.664,14.167 72.510 C 13.885 72.319,12.933 72.186,13.142 72.367 M143.767 72.367 C 143.815 72.408,144.135 72.504,144.479 72.581 C 144.936 72.683,145.020 72.664,144.792 72.510 C 144.510 72.319,143.558 72.186,143.767 72.367 M231.667 72.604 C 230.986 72.993,231.224 72.997,232.111 72.612 C 232.497 72.445,232.672 72.308,232.500 72.307 C 232.328 72.307,231.953 72.440,231.667 72.604 M30.298 77.292 C 30.298 79.984,30.328 81.086,30.364 79.740 C 30.400 78.393,30.400 76.190,30.364 74.844 C 30.328 73.497,30.298 74.599,30.298 77.292 M33.423 77.500 C 33.423 80.307,33.453 81.456,33.489 80.052 C 33.525 78.648,33.525 76.352,33.489 74.948 C 33.453 73.544,33.423 74.693,33.423 77.500 M76.892 72.574 C 76.940 72.615,77.307 72.709,77.708 72.782 C 78.221 72.876,78.345 72.855,78.125 72.711 C 77.843 72.526,76.686 72.398,76.892 72.574 M101.116 74.271 C 101.115 75.302,101.150 75.750,101.194 75.267 C 101.238 74.783,101.238 73.939,101.195 73.392 C 101.152 72.844,101.116 73.240,101.116 74.271 M160.642 72.575 C 160.690 72.616,161.010 72.713,161.354 72.790 C 161.811 72.892,161.895 72.872,161.667 72.718 C 161.385 72.527,160.433 72.395,160.642 72.575 M276.667 72.649 C 276.839 72.712,277.167 72.851,277.396 72.956 C 277.806 73.145,277.806 73.143,277.408 72.824 C 277.186 72.646,276.858 72.507,276.679 72.516 C 276.398 72.531,276.397 72.549,276.667 72.649 M342.708 72.649 C 342.880 72.712,343.208 72.851,343.438 72.956 C 343.847 73.145,343.848 73.143,343.450 72.824 C 343.227 72.646,342.899 72.507,342.721 72.516 C 342.440 72.531,342.438 72.549,342.708 72.649 M351.116 74.271 C 351.115 75.302,351.150 75.750,351.194 75.267 C 351.238 74.783,351.238 73.939,351.195 73.392 C 351.152 72.844,351.116 73.240,351.116 74.271 M368.929 72.929 L 368.438 73.358 369.063 72.992 C 369.885 72.510,369.897 72.500,369.641 72.500 C 369.520 72.500,369.200 72.693,368.929 72.929 M390.334 72.674 C 390.193 72.901,390.139 80.000,390.276 80.137 C 390.334 80.195,390.393 78.579,390.407 76.547 C 390.421 74.514,390.481 72.772,390.541 72.675 C 390.601 72.579,390.603 72.500,390.545 72.500 C 390.488 72.500,390.393 72.578,390.334 72.674 M203.844 79.792 C 203.844 83.745,203.872 85.362,203.906 83.385 C 203.940 81.409,203.940 78.174,203.906 76.198 C 203.872 74.221,203.844 75.839,203.844 79.792 M177.708 72.982 C 177.708 73.018,178.013 73.322,178.385 73.659 L 179.063 74.271 178.451 73.594 C 177.880 72.963,177.708 72.821,177.708 72.982 M236.458 72.982 C 236.458 73.018,236.763 73.322,237.135 73.659 L 237.813 74.271 237.201 73.594 C 236.630 72.963,236.458 72.821,236.458 72.982 M74.325 75.356 C 74.584 75.406,74.959 75.404,75.159 75.351 C 75.358 75.299,75.146 75.259,74.688 75.261 C 74.229 75.263,74.066 75.306,74.325 75.356 M157.867 75.356 C 158.126 75.406,158.501 75.404,158.700 75.351 C 158.900 75.299,158.688 75.259,158.229 75.261 C 157.771 75.263,157.608 75.306,157.867 75.356 M251.253 75.364 C 250.051 75.402,249.000 75.499,248.918 75.581 C 248.836 75.662,249.773 75.700,250.999 75.664 C 252.226 75.628,253.318 75.511,253.427 75.404 C 253.536 75.296,253.583 75.228,253.531 75.252 C 253.480 75.276,252.454 75.327,251.253 75.364 M273.492 75.356 C 273.751 75.406,274.126 75.404,274.325 75.351 C 274.525 75.299,274.313 75.259,273.854 75.261 C 273.396 75.263,273.233 75.306,273.492 75.356 M289.298 75.373 C 289.242 75.464,289.517 75.500,289.910 75.455 C 290.303 75.409,290.625 75.334,290.625 75.290 C 290.625 75.133,289.399 75.210,289.298 75.373 M206.965 77.028 C 206.976 78.306,207.044 78.646,207.292 78.664 C 207.464 78.676,207.491 78.647,207.352 78.600 C 207.195 78.547,207.072 77.931,207.026 76.965 L 206.951 75.415 206.965 77.028 M339.625 77.031 C 339.585 78.694,339.599 78.749,340.052 78.726 C 340.391 78.708,340.422 78.676,340.165 78.608 C 339.876 78.532,339.795 78.211,339.738 76.913 L 339.667 75.313 339.625 77.031 M295.265 76.458 C 295.265 76.974,295.306 77.185,295.355 76.927 C 295.405 76.669,295.405 76.247,295.355 75.990 C 295.306 75.732,295.265 75.943,295.265 76.458 M326.965 81.875 C 326.965 84.682,326.995 85.831,327.031 84.427 C 327.067 83.023,327.067 80.727,327.031 79.323 C 326.995 77.919,326.965 79.068,326.965 81.875 M9.659 79.688 C 9.660 80.833,9.695 81.276,9.737 80.670 C 9.779 80.065,9.779 79.127,9.736 78.587 C 9.693 78.046,9.659 78.542,9.659 79.688 M140.284 79.688 C 140.285 80.833,140.320 81.276,140.362 80.670 C 140.404 80.065,140.404 79.127,140.361 78.587 C 140.318 78.046,140.284 78.542,140.284 79.688 M369.449 79.688 C 369.448 80.719,369.484 81.167,369.527 80.683 C 369.571 80.200,369.571 79.356,369.528 78.808 C 369.485 78.261,369.450 78.656,369.449 79.688 M373.616 79.688 C 373.615 80.719,373.650 81.167,373.694 80.683 C 373.738 80.200,373.738 79.356,373.695 78.808 C 373.652 78.261,373.616 78.656,373.616 79.688 M252.748 79.419 L 252.708 80.818 250.781 80.886 L 248.854 80.955 250.788 80.998 C 253.009 81.048,252.976 81.076,252.863 79.248 L 252.787 78.021 252.748 79.419 M169.646 79.583 C 169.646 80.214,169.685 80.471,169.733 80.156 C 169.780 79.841,169.780 79.326,169.733 79.010 C 169.685 78.695,169.646 78.953,169.646 79.583 M180.271 79.583 C 180.271 80.214,180.310 80.471,180.358 80.156 C 180.405 79.841,180.405 79.326,180.358 79.010 C 180.310 78.695,180.271 78.953,180.271 79.583 M228.396 79.583 C 228.396 80.214,228.435 80.471,228.483 80.156 C 228.530 79.841,228.530 79.326,228.483 79.010 C 228.435 78.695,228.396 78.953,228.396 79.583 M239.021 79.583 C 239.021 80.214,239.060 80.471,239.108 80.156 C 239.155 79.841,239.155 79.326,239.108 79.010 C 239.060 78.695,239.021 78.953,239.021 79.583 M11.945 80.208 C 11.945 81.068,11.982 81.419,12.027 80.990 C 12.072 80.560,12.072 79.857,12.027 79.427 C 11.982 78.997,11.945 79.349,11.945 80.208 M142.570 80.208 C 142.570 81.068,142.607 81.419,142.652 80.990 C 142.697 80.560,142.697 79.857,142.652 79.427 C 142.607 78.997,142.570 79.349,142.570 80.208 M386.588 79.487 C 386.517 79.673,386.478 81.435,386.501 83.402 L 386.544 86.979 386.657 83.125 C 386.780 78.961,386.780 78.986,386.588 79.487 M42.757 82.083 C 42.757 82.484,42.800 82.648,42.852 82.448 C 42.904 82.247,42.904 81.919,42.852 81.719 C 42.800 81.518,42.757 81.682,42.757 82.083 M206.957 84.167 C 206.957 85.714,206.989 86.346,207.029 85.573 C 207.070 84.799,207.070 83.534,207.029 82.760 C 206.989 81.987,206.957 82.620,206.957 84.167 M339.665 84.167 C 339.665 85.714,339.698 86.346,339.738 85.573 C 339.778 84.799,339.778 83.534,339.738 82.760 C 339.698 81.987,339.665 82.620,339.665 84.167 M13.948 82.442 C 13.891 82.926,13.924 83.243,14.021 83.146 C 14.118 83.049,14.164 82.653,14.125 82.266 C 14.054 81.580,14.050 81.584,13.948 82.442 M144.573 82.442 C 144.516 82.926,144.549 83.243,144.646 83.146 C 144.743 83.049,144.789 82.653,144.750 82.266 C 144.679 81.580,144.675 81.584,144.573 82.442 M276.042 82.867 C 276.042 82.993,275.894 83.243,275.714 83.423 C 275.534 83.603,275.484 83.750,275.603 83.750 C 275.867 83.750,276.331 82.928,276.163 82.760 C 276.096 82.693,276.042 82.742,276.042 82.867 M58.942 84.531 C 60.296 84.585,60.757 84.683,60.963 84.957 C 61.201 85.275,61.217 85.263,61.111 84.844 C 60.998 84.396,60.906 84.377,59.090 84.417 L 57.188 84.460 58.942 84.531 M89.511 84.531 C 89.457 84.617,89.991 84.661,90.696 84.629 C 92.994 84.526,93.266 84.442,91.419 84.408 C 90.423 84.390,89.564 84.445,89.511 84.531 M306.452 84.531 C 307.530 84.574,308.278 84.699,308.376 84.853 C 308.485 85.025,308.536 84.989,308.538 84.740 C 308.541 84.415,308.328 84.380,306.615 84.417 L 304.688 84.460 306.452 84.531 " stroke="none" fill="#363636" fill-rule="evenodd"></path><path id="path2" d="M11.410 72.443 C 11.784 72.489,12.347 72.488,12.660 72.441 C 12.973 72.393,12.667 72.355,11.979 72.356 C 11.292 72.357,11.036 72.396,11.410 72.443 M142.035 72.443 C 142.409 72.489,142.972 72.488,143.285 72.441 C 143.598 72.393,143.292 72.355,142.604 72.356 C 141.917 72.357,141.661 72.396,142.035 72.443 M174.427 72.441 C 174.742 72.489,175.258 72.489,175.573 72.441 C 175.888 72.393,175.630 72.354,175.000 72.354 C 174.370 72.354,174.112 72.393,174.427 72.441 M233.177 72.441 C 233.492 72.489,234.008 72.489,234.323 72.441 C 234.638 72.393,234.380 72.354,233.750 72.354 C 233.120 72.354,232.862 72.393,233.177 72.441 M371.097 72.441 C 371.413 72.489,371.882 72.488,372.138 72.438 C 372.395 72.389,372.135 72.350,371.563 72.351 C 370.990 72.353,370.780 72.393,371.097 72.441 M23.798 77.448 L 23.846 82.396 23.906 77.552 L 23.966 72.708 25.312 72.708 L 26.659 72.708 26.719 77.448 L 26.779 82.188 26.827 77.344 L 26.875 72.500 25.313 72.500 L 23.750 72.500 23.798 77.448 M31.094 72.652 C 31.523 72.697,32.227 72.697,32.656 72.652 C 33.086 72.607,32.734 72.570,31.875 72.570 C 31.016 72.570,30.664 72.607,31.094 72.652 M44.885 72.765 C 44.829 72.911,44.811 75.138,44.844 77.713 L 44.904 82.396 44.952 77.561 L 45.000 72.727 46.510 72.655 L 48.021 72.583 46.504 72.541 C 45.436 72.512,44.957 72.579,44.885 72.765 M58.281 72.653 C 58.768 72.696,59.565 72.696,60.052 72.653 C 60.539 72.609,60.141 72.573,59.167 72.573 C 58.193 72.573,57.794 72.609,58.281 72.653 M72.353 72.655 C 73.247 72.694,74.653 72.694,75.478 72.654 C 76.304 72.615,75.573 72.583,73.854 72.583 C 72.135 72.584,71.460 72.616,72.353 72.655 M89.720 72.656 C 89.667 72.742,90.411 72.813,91.374 72.813 C 92.337 72.813,93.125 72.742,93.125 72.656 C 93.125 72.570,92.381 72.500,91.471 72.500 C 90.561 72.500,89.773 72.570,89.720 72.656 M103.606 72.656 C 104.958 72.692,107.115 72.692,108.397 72.655 C 109.680 72.619,108.573 72.589,105.938 72.589 C 103.302 72.589,102.253 72.619,103.606 72.656 M117.390 72.752 C 117.333 72.902,117.311 76.117,117.341 79.897 L 117.396 86.771 118.854 86.771 L 120.313 86.771 120.313 79.688 L 120.313 72.604 118.903 72.542 C 117.891 72.498,117.465 72.557,117.390 72.752 M154.375 79.688 L 154.375 86.875 155.938 86.875 L 157.500 86.875 157.500 83.958 C 157.500 81.318,157.535 81.042,157.865 81.045 C 158.331 81.049,158.622 81.249,158.918 81.771 C 159.048 82.000,159.157 82.070,159.160 81.927 C 159.171 81.489,158.363 80.833,157.813 80.833 L 157.292 80.833 157.292 83.750 L 157.292 86.667 155.938 86.667 L 154.583 86.667 154.583 79.693 L 154.583 72.719 157.656 72.656 L 160.729 72.592 157.552 72.546 L 154.375 72.500 154.375 79.688 M188.486 72.650 L 189.992 72.726 190.054 77.144 L 190.116 81.563 190.110 77.083 L 190.104 72.604 188.542 72.588 L 186.979 72.573 188.486 72.650 M193.635 72.766 C 193.579 72.912,193.560 74.998,193.594 77.401 L 193.655 81.771 193.702 77.249 L 193.750 72.727 195.260 72.655 L 196.771 72.583 195.254 72.541 C 194.185 72.512,193.707 72.578,193.635 72.766 M205.365 72.655 C 206.195 72.694,207.555 72.694,208.385 72.655 C 209.216 72.615,208.536 72.583,206.875 72.583 C 205.214 72.583,204.534 72.615,205.365 72.655 M249.573 72.654 L 253.314 72.718 253.390 73.911 L 253.467 75.104 253.452 73.854 L 253.438 72.604 249.635 72.597 L 245.833 72.590 249.573 72.654 M270.000 79.688 L 270.000 86.875 272.969 86.829 L 275.938 86.784 273.073 86.719 L 270.208 86.655 270.208 79.687 L 270.208 72.719 273.385 72.656 L 276.563 72.592 273.281 72.546 L 270.000 72.500 270.000 79.688 M286.136 72.762 C 286.081 72.906,286.061 76.117,286.091 79.897 L 286.146 86.771 287.708 86.787 L 289.271 86.802 287.760 86.725 L 286.250 86.648 286.250 79.684 L 286.250 72.719 289.323 72.656 L 292.396 72.592 289.316 72.546 C 287.000 72.511,286.212 72.565,286.136 72.762 M304.931 72.639 C 304.854 72.715,304.793 72.879,304.795 73.003 C 304.797 73.144,304.858 73.135,304.957 72.978 C 305.053 72.828,305.783 72.699,306.777 72.656 L 308.438 72.584 306.753 72.542 C 305.827 72.519,305.007 72.563,304.931 72.639 M319.993 72.652 C 321.220 72.697,322.033 72.820,322.144 72.977 C 322.272 73.157,322.299 73.139,322.239 72.917 C 322.171 72.667,321.740 72.602,320.087 72.591 L 318.021 72.578 319.993 72.652 M327.552 72.652 L 329.375 72.724 329.375 79.685 L 329.375 86.646 328.228 86.725 L 327.081 86.805 328.280 86.788 L 329.479 86.771 329.479 79.688 L 329.479 72.604 327.604 72.592 L 325.729 72.581 327.552 72.652 M336.553 72.762 C 336.498 72.906,336.477 76.117,336.508 79.897 L 336.563 86.771 338.125 86.787 L 339.688 86.802 338.177 86.725 L 336.667 86.648 336.667 79.684 L 336.667 72.720 339.635 72.656 L 342.604 72.592 339.629 72.546 C 337.397 72.511,336.628 72.565,336.553 72.762 M353.606 72.656 C 354.958 72.692,357.115 72.692,358.397 72.655 C 359.680 72.619,358.573 72.589,355.938 72.589 C 353.302 72.589,352.253 72.619,353.606 72.656 M383.636 72.762 C 383.581 72.906,383.561 76.117,383.591 79.897 L 383.646 86.771 385.053 86.786 L 386.460 86.802 385.105 86.725 L 383.750 86.648 383.750 79.661 L 383.750 72.674 385.189 72.743 C 385.981 72.781,386.584 72.742,386.531 72.656 C 386.359 72.380,383.747 72.475,383.636 72.762 M391.823 72.649 L 393.125 72.728 393.125 79.715 L 393.125 86.701 391.676 86.632 C 390.879 86.594,390.303 86.638,390.395 86.729 C 390.488 86.821,391.163 86.868,391.896 86.834 L 393.229 86.771 393.229 79.688 L 393.229 72.604 391.875 72.587 L 390.521 72.569 391.823 72.649 M14.724 73.059 C 14.974 73.267,15.381 73.672,15.628 73.958 L 16.078 74.479 15.629 73.802 C 15.382 73.429,14.975 73.024,14.725 72.902 L 14.271 72.680 14.724 73.059 M120.208 79.688 L 120.208 86.667 118.854 86.667 L 117.500 86.667 117.500 79.688 L 117.500 72.708 118.854 72.708 L 120.208 72.708 120.208 79.688 M145.349 73.059 C 145.599 73.267,146.006 73.672,146.253 73.958 L 146.703 74.479 146.254 73.802 C 146.007 73.429,145.600 73.024,145.350 72.902 L 144.896 72.680 145.349 73.059 M171.978 73.362 C 171.569 73.721,171.139 74.214,171.023 74.456 C 170.888 74.735,171.003 74.668,171.337 74.271 C 171.626 73.927,172.123 73.435,172.442 73.178 C 172.760 72.921,172.954 72.710,172.872 72.709 C 172.790 72.709,172.388 73.002,171.978 73.362 M8.673 73.349 C 8.370 73.588,8.024 73.986,7.904 74.235 C 7.714 74.626,7.745 74.617,8.128 74.167 C 8.372 73.880,8.776 73.484,9.026 73.286 C 9.275 73.088,9.421 72.924,9.351 72.921 C 9.281 72.919,8.975 73.111,8.673 73.349 M78.774 73.427 C 78.959 73.662,79.213 74.042,79.340 74.271 C 79.467 74.500,79.574 74.572,79.577 74.430 C 79.580 74.289,79.326 73.909,79.010 73.587 C 78.695 73.265,78.589 73.193,78.774 73.427 M139.298 73.349 C 138.995 73.588,138.649 73.986,138.529 74.235 C 138.339 74.626,138.370 74.617,138.753 74.167 C 138.997 73.880,139.401 73.484,139.651 73.286 C 139.900 73.088,140.046 72.924,139.976 72.921 C 139.906 72.919,139.600 73.111,139.298 73.349 M162.426 73.611 C 162.753 73.996,163.053 74.284,163.093 74.253 C 163.217 74.155,162.412 73.149,162.113 73.028 C 161.958 72.964,162.098 73.227,162.426 73.611 M178.146 73.634 C 178.443 73.984,178.842 74.503,179.031 74.786 C 179.220 75.069,179.375 75.196,179.375 75.067 C 179.375 74.938,178.977 74.419,178.490 73.914 C 178.003 73.409,177.848 73.283,178.146 73.634 M211.274 73.427 C 211.459 73.662,211.713 74.042,211.840 74.271 C 211.967 74.500,212.074 74.572,212.077 74.430 C 212.080 74.289,211.826 73.909,211.510 73.587 C 211.195 73.265,211.089 73.193,211.274 73.427 M230.337 73.751 C 229.922 74.209,229.587 74.655,229.591 74.740 C 229.595 74.826,229.827 74.615,230.106 74.271 C 230.385 73.927,230.814 73.482,231.059 73.281 C 231.304 73.081,231.411 72.917,231.297 72.917 C 231.183 72.917,230.751 73.292,230.337 73.751 M236.896 73.634 C 237.193 73.984,237.592 74.503,237.781 74.786 C 237.970 75.069,238.125 75.196,238.125 75.067 C 238.125 74.938,237.727 74.419,237.240 73.914 C 236.753 73.409,236.598 73.283,236.896 73.634 M374.544 73.519 C 374.924 73.875,375.290 74.167,375.358 74.167 C 375.573 74.167,374.710 73.304,374.273 73.083 C 374.043 72.966,374.165 73.163,374.544 73.519 M293.958 73.301 C 293.958 73.398,294.160 73.656,294.407 73.874 L 294.856 74.271 294.487 73.698 C 294.107 73.107,293.958 72.995,293.958 73.301 M343.939 73.505 C 344.065 73.742,344.272 73.999,344.397 74.076 C 344.560 74.177,344.560 74.095,344.395 73.787 C 344.268 73.550,344.062 73.293,343.936 73.216 C 343.773 73.115,343.774 73.197,343.939 73.505 M367.887 74.010 C 367.550 74.491,367.519 74.602,367.780 74.392 C 368.151 74.094,368.639 73.333,368.459 73.333 C 368.405 73.333,368.148 73.638,367.887 74.010 M10.717 75.536 C 10.494 75.717,10.453 75.790,10.625 75.700 C 10.797 75.609,11.313 75.474,11.771 75.398 L 12.604 75.260 11.863 75.234 C 11.455 75.220,10.939 75.356,10.717 75.536 M73.840 76.822 L 73.854 78.438 74.741 78.458 L 75.628 78.478 74.802 78.394 L 73.975 78.310 73.901 76.759 L 73.826 75.207 73.840 76.822 M75.417 75.288 C 75.417 75.332,75.651 75.413,75.938 75.468 C 76.224 75.522,76.458 75.486,76.458 75.388 C 76.458 75.289,76.224 75.208,75.938 75.208 C 75.651 75.208,75.417 75.244,75.417 75.288 M141.315 75.573 C 141.097 75.773,141.048 75.849,141.206 75.741 C 141.365 75.633,141.885 75.480,142.362 75.402 L 143.229 75.260 142.471 75.234 C 142.009 75.219,141.558 75.351,141.315 75.573 M157.382 76.822 L 157.396 78.438 158.283 78.458 L 159.170 78.478 158.343 78.394 L 157.517 78.310 157.442 76.759 L 157.368 75.207 157.382 76.822 M207.083 75.325 C 207.857 75.493,208.920 75.523,208.827 75.373 C 208.771 75.282,208.286 75.219,207.748 75.233 C 207.211 75.246,206.911 75.287,207.083 75.325 M278.807 76.042 C 278.807 76.557,278.847 76.768,278.897 76.510 C 278.947 76.253,278.947 75.831,278.897 75.573 C 278.847 75.315,278.807 75.526,278.807 76.042 M291.042 75.361 C 291.328 75.414,291.703 75.565,291.875 75.697 C 292.147 75.906,292.150 75.890,291.902 75.573 C 291.744 75.372,291.370 75.221,291.068 75.237 L 290.521 75.265 291.042 75.361 M340.417 75.363 C 340.990 75.413,341.556 75.621,341.875 75.899 L 342.396 76.354 341.891 75.781 C 341.465 75.299,341.236 75.214,340.432 75.245 L 339.479 75.281 340.417 75.363 M143.626 75.803 C 144.067 76.300,144.167 76.345,144.167 76.049 C 144.167 75.938,143.956 75.737,143.698 75.602 C 143.232 75.357,143.231 75.358,143.626 75.803 M173.773 75.845 C 173.499 76.074,173.319 76.306,173.375 76.361 C 173.430 76.416,173.645 76.273,173.853 76.043 C 174.101 75.768,174.495 75.625,175.000 75.625 C 175.505 75.625,175.899 75.768,176.147 76.043 C 176.355 76.273,176.570 76.416,176.625 76.361 C 176.869 76.117,175.670 75.431,175.000 75.431 C 174.578 75.431,174.061 75.605,173.773 75.845 M232.523 75.845 C 232.249 76.074,232.069 76.306,232.125 76.361 C 232.180 76.416,232.395 76.273,232.603 76.043 C 232.851 75.768,233.245 75.625,233.750 75.625 C 234.255 75.625,234.649 75.768,234.897 76.043 C 235.105 76.273,235.320 76.416,235.375 76.361 C 235.619 76.117,234.420 75.431,233.750 75.431 C 233.328 75.431,232.811 75.605,232.523 75.845 M273.007 76.875 L 273.021 78.229 273.646 78.249 C 274.216 78.266,274.222 78.261,273.707 78.184 C 273.174 78.105,273.139 78.030,273.068 76.810 L 272.992 75.521 273.007 76.875 M370.388 75.850 L 369.896 76.283 370.411 75.954 C 370.694 75.773,371.212 75.625,371.563 75.625 C 371.913 75.625,372.431 75.773,372.714 75.954 L 373.229 76.283 372.737 75.850 C 372.453 75.599,371.958 75.417,371.563 75.417 C 371.167 75.417,370.672 75.599,370.388 75.850 M387.722 75.521 C 387.722 75.635,387.859 75.911,388.027 76.134 C 388.196 76.356,388.333 76.444,388.333 76.330 C 388.333 76.215,388.196 75.939,388.027 75.717 C 387.859 75.494,387.722 75.406,387.722 75.521 M79.851 76.563 C 79.853 77.135,79.893 77.345,79.941 77.028 C 79.989 76.712,79.988 76.243,79.938 75.987 C 79.889 75.730,79.850 75.990,79.851 76.563 M212.360 76.979 C 212.361 77.781,212.399 78.084,212.444 77.652 C 212.489 77.219,212.488 76.563,212.442 76.193 C 212.396 75.823,212.359 76.177,212.360 76.979 M102.760 75.988 L 104.375 76.059 104.375 81.467 L 104.375 86.875 105.938 86.875 L 107.500 86.875 107.500 81.467 L 107.500 76.059 109.115 75.988 L 110.729 75.917 109.010 75.875 L 107.292 75.833 107.292 81.250 L 107.292 86.667 105.938 86.667 L 104.583 86.667 104.583 81.250 L 104.583 75.833 102.865 75.875 L 101.146 75.917 102.760 75.988 M209.271 76.979 C 209.271 77.587,209.341 78.042,209.427 77.989 C 209.513 77.936,209.583 77.481,209.583 76.979 C 209.583 76.477,209.513 76.023,209.427 75.970 C 209.341 75.917,209.271 76.371,209.271 76.979 M248.812 76.875 C 248.812 77.505,248.851 77.763,248.899 77.448 C 248.947 77.133,248.947 76.617,248.899 76.302 C 248.851 75.987,248.812 76.245,248.812 76.875 M345.062 76.875 C 345.062 77.505,345.101 77.763,345.149 77.448 C 345.197 77.133,345.197 76.617,345.149 76.302 C 345.101 75.987,345.062 76.245,345.062 76.875 M352.760 75.988 L 354.375 76.059 354.375 81.467 L 354.375 86.875 355.938 86.875 L 357.500 86.875 357.500 81.467 L 357.500 76.059 359.115 75.988 L 360.729 75.917 359.010 75.875 L 357.292 75.833 357.292 81.250 L 357.292 86.667 355.938 86.667 L 354.583 86.667 354.583 81.250 L 354.583 75.833 352.865 75.875 L 351.146 75.917 352.760 75.988 M320.417 81.552 L 320.417 86.646 319.219 86.721 L 318.021 86.796 319.323 86.836 L 320.625 86.875 320.625 81.667 C 320.625 78.802,320.578 76.458,320.521 76.458 C 320.464 76.458,320.417 78.751,320.417 81.552 M341.781 78.113 C 341.580 78.336,341.167 78.556,340.864 78.603 L 340.313 78.688 340.849 78.719 C 341.181 78.738,341.572 78.552,341.875 78.229 C 342.144 77.943,342.316 77.708,342.256 77.708 C 342.197 77.708,341.983 77.891,341.781 78.113 M172.782 79.688 C 172.782 80.719,172.817 81.167,172.861 80.683 C 172.904 80.200,172.905 79.356,172.862 78.808 C 172.819 78.261,172.783 78.656,172.782 79.688 M177.157 79.688 C 177.157 80.719,177.192 81.167,177.236 80.683 C 177.279 80.200,177.280 79.356,177.237 78.808 C 177.194 78.261,177.158 78.656,177.157 79.688 M231.532 79.688 C 231.532 80.719,231.567 81.167,231.611 80.683 C 231.654 80.200,231.655 79.356,231.612 78.808 C 231.569 78.261,231.533 78.656,231.532 79.688 M235.907 79.688 C 235.907 80.719,235.942 81.167,235.986 80.683 C 236.029 80.200,236.030 79.356,235.987 78.808 C 235.944 78.261,235.908 78.656,235.907 79.688 M62.317 78.755 C 62.632 79.688,62.810 79.869,62.619 79.063 C 62.537 78.719,62.381 78.346,62.271 78.234 C 62.162 78.122,62.182 78.356,62.317 78.755 M249.740 78.278 C 250.227 78.321,251.023 78.321,251.510 78.278 C 251.997 78.234,251.599 78.198,250.625 78.198 C 249.651 78.198,249.253 78.234,249.740 78.278 M277.745 78.607 C 277.246 79.137,277.153 79.583,277.541 79.583 C 277.678 79.583,278.034 79.794,278.332 80.052 C 278.630 80.310,278.556 80.207,278.169 79.824 L 277.464 79.128 277.935 78.626 C 278.194 78.351,278.359 78.125,278.302 78.125 C 278.245 78.125,277.994 78.342,277.745 78.607 M309.817 78.755 C 310.132 79.688,310.310 79.869,310.119 79.063 C 310.037 78.719,309.881 78.346,309.771 78.234 C 309.662 78.122,309.682 78.356,309.817 78.755 M6.527 79.688 C 6.528 80.490,6.565 80.792,6.610 80.360 C 6.655 79.928,6.655 79.271,6.609 78.902 C 6.563 78.532,6.526 78.885,6.527 79.688 M137.152 79.688 C 137.153 80.490,137.190 80.792,137.235 80.360 C 137.280 79.928,137.280 79.271,137.234 78.902 C 137.188 78.532,137.151 78.885,137.152 79.688 M208.229 78.542 C 207.653 78.688,207.645 78.702,208.125 78.722 C 208.411 78.734,208.786 78.653,208.958 78.542 C 209.313 78.313,209.130 78.313,208.229 78.542 M289.531 78.480 C 289.789 78.530,290.211 78.530,290.469 78.480 C 290.727 78.431,290.516 78.390,290.000 78.390 C 289.484 78.390,289.273 78.431,289.531 78.480 M366.312 79.583 C 366.312 80.214,366.351 80.471,366.399 80.156 C 366.447 79.841,366.447 79.326,366.399 79.010 C 366.351 78.695,366.312 78.953,366.312 79.583 M376.729 79.583 C 376.729 80.214,376.768 80.471,376.816 80.156 C 376.864 79.841,376.864 79.326,376.816 79.010 C 376.768 78.695,376.729 78.953,376.729 79.583 M16.749 81.771 C 16.749 83.375,16.782 84.004,16.822 83.168 C 16.861 82.332,16.861 81.020,16.821 80.251 C 16.781 79.483,16.749 80.167,16.749 81.771 M147.374 81.771 C 147.374 83.375,147.407 84.004,147.447 83.168 C 147.486 82.332,147.486 81.020,147.446 80.251 C 147.406 79.483,147.374 80.167,147.374 81.771 M344.052 80.225 C 343.976 80.349,343.618 80.630,343.259 80.849 C 342.899 81.069,342.720 81.249,342.861 81.249 C 343.128 81.250,344.590 80.017,344.335 80.006 C 344.256 80.003,344.129 80.101,344.052 80.225 M62.942 81.046 C 63.257 81.979,63.435 82.160,63.244 81.354 C 63.162 81.010,63.006 80.638,62.896 80.526 C 62.787 80.414,62.807 80.648,62.942 81.046 M310.442 81.046 C 310.757 81.979,310.935 82.160,310.744 81.354 C 310.662 81.010,310.506 80.638,310.396 80.526 C 310.287 80.414,310.307 80.648,310.442 81.046 M272.917 82.292 L 272.917 83.958 274.219 83.919 L 275.521 83.880 274.323 83.804 L 273.125 83.729 273.125 82.258 L 273.125 80.786 274.574 80.868 C 275.370 80.913,275.909 80.878,275.771 80.791 C 275.634 80.703,274.935 80.630,274.219 80.628 L 272.917 80.625 272.917 82.292 M60.208 81.135 C 60.208 81.356,59.883 81.458,59.010 81.513 L 57.813 81.588 59.115 81.627 C 60.291 81.663,60.417 81.626,60.417 81.250 C 60.417 81.021,60.370 80.833,60.313 80.833 C 60.255 80.833,60.208 80.969,60.208 81.135 M73.750 83.741 L 73.750 86.648 72.344 86.723 L 70.938 86.798 72.396 86.784 L 73.854 86.771 73.912 83.906 C 73.974 80.835,74.104 80.544,75.036 81.386 C 75.250 81.581,75.417 81.629,75.417 81.498 C 75.417 81.199,74.736 80.833,74.180 80.833 C 73.766 80.833,73.750 80.941,73.750 83.741 M248.795 83.689 L 248.750 86.648 247.240 86.720 L 245.729 86.792 247.246 86.834 C 249.089 86.884,248.988 87.084,248.906 83.531 L 248.841 80.729 248.795 83.689 M289.583 80.986 C 289.870 81.039,290.245 81.190,290.417 81.322 C 290.689 81.531,290.692 81.515,290.443 81.198 C 290.286 80.997,289.912 80.846,289.610 80.862 L 289.063 80.890 289.583 80.986 M307.708 81.135 C 307.708 81.356,307.383 81.458,306.510 81.513 L 305.313 81.588 306.615 81.627 C 307.791 81.663,307.917 81.626,307.917 81.250 C 307.917 81.021,307.870 80.833,307.813 80.833 C 307.755 80.833,307.708 80.969,307.708 81.135 M90.188 81.522 C 90.281 81.615,90.863 81.660,91.481 81.624 L 92.604 81.557 91.312 81.455 C 90.601 81.400,90.095 81.430,90.188 81.522 M207.552 81.402 C 207.982 81.447,208.685 81.447,209.115 81.402 C 209.544 81.357,209.193 81.320,208.333 81.320 C 207.474 81.320,207.122 81.357,207.552 81.402 M340.260 81.402 C 340.690 81.447,341.393 81.447,341.823 81.402 C 342.253 81.357,341.901 81.320,341.042 81.320 C 340.182 81.320,339.831 81.357,340.260 81.402 M12.552 81.608 C 12.867 81.655,13.383 81.655,13.698 81.608 C 14.013 81.560,13.755 81.521,13.125 81.521 C 12.495 81.521,12.237 81.560,12.552 81.608 M143.177 81.608 C 143.492 81.655,144.008 81.655,144.323 81.608 C 144.638 81.560,144.380 81.521,143.750 81.521 C 143.120 81.521,142.862 81.560,143.177 81.608 M235.589 82.083 C 235.524 82.370,235.405 82.792,235.326 83.021 C 235.247 83.250,235.334 83.174,235.521 82.853 C 235.707 82.531,235.825 82.109,235.784 81.915 C 235.730 81.664,235.674 81.712,235.589 82.083 M276.298 82.292 C 276.298 82.693,276.341 82.857,276.394 82.656 C 276.446 82.456,276.446 82.128,276.394 81.927 C 276.341 81.727,276.298 81.891,276.298 82.292 M279.231 82.813 C 279.232 83.500,279.271 83.756,279.318 83.382 C 279.364 83.007,279.363 82.445,279.316 82.132 C 279.268 81.819,279.230 82.125,279.231 82.813 M39.931 82.014 C 39.854 82.090,39.793 82.254,39.795 82.378 C 39.797 82.531,39.848 82.528,39.951 82.368 C 40.035 82.238,40.292 82.085,40.521 82.027 C 40.924 81.927,40.923 81.923,40.503 81.899 C 40.265 81.886,40.007 81.938,39.931 82.014 M30.208 82.368 C 30.208 82.524,30.012 82.923,29.771 83.253 L 29.334 83.854 29.875 83.270 C 30.354 82.753,30.601 82.083,30.313 82.083 C 30.255 82.083,30.208 82.211,30.208 82.368 M173.125 82.678 C 173.125 83.124,174.415 83.958,175.068 83.934 C 175.696 83.912,175.688 83.903,174.908 83.752 C 174.414 83.657,173.894 83.371,173.606 83.035 C 173.341 82.728,173.125 82.567,173.125 82.678 M231.875 82.678 C 231.875 83.124,233.165 83.958,233.818 83.934 C 234.446 83.912,234.438 83.903,233.658 83.752 C 233.164 83.657,232.644 83.371,232.356 83.035 C 232.091 82.728,231.875 82.567,231.875 82.678 M190.208 82.911 C 190.208 83.265,191.312 83.958,191.875 83.958 C 192.438 83.958,193.542 83.265,193.542 82.911 C 193.542 82.810,193.312 82.957,193.030 83.239 C 192.708 83.561,192.281 83.750,191.875 83.750 C 191.469 83.750,191.042 83.561,190.720 83.239 C 190.438 82.957,190.208 82.810,190.208 82.911 M10.109 83.166 C 10.217 83.447,11.033 84.045,11.139 83.921 C 11.170 83.884,10.926 83.636,10.598 83.370 C 10.270 83.104,10.050 83.012,10.109 83.166 M140.734 83.166 C 140.842 83.447,141.658 84.045,141.764 83.921 C 141.795 83.884,141.551 83.636,141.223 83.370 C 140.895 83.104,140.675 83.012,140.734 83.166 M43.068 83.539 C 43.577 84.089,44.545 83.974,44.756 83.337 C 44.833 83.104,44.770 83.117,44.498 83.389 C 44.041 83.846,43.588 83.847,43.037 83.393 C 42.664 83.086,42.669 83.106,43.068 83.539 M370.388 83.525 C 370.672 83.776,371.167 83.958,371.563 83.958 C 371.958 83.958,372.453 83.776,372.737 83.525 L 373.229 83.092 372.714 83.421 C 372.431 83.602,371.913 83.750,371.563 83.750 C 371.212 83.750,370.694 83.602,370.411 83.421 L 369.896 83.092 370.388 83.525 M13.229 83.588 C 13.000 83.722,12.484 83.896,12.083 83.975 C 11.424 84.105,11.410 84.121,11.937 84.143 C 12.473 84.165,13.750 83.664,13.750 83.432 C 13.750 83.297,13.708 83.310,13.229 83.588 M143.854 83.588 C 143.625 83.722,143.109 83.896,142.708 83.975 C 142.049 84.105,142.035 84.121,142.562 84.143 C 143.098 84.165,144.375 83.664,144.375 83.432 C 144.375 83.297,144.333 83.310,143.854 83.588 M27.891 83.808 C 27.992 83.909,28.343 83.957,28.673 83.916 C 29.223 83.848,29.209 83.833,28.490 83.734 C 28.042 83.672,27.787 83.703,27.891 83.808 M54.363 84.094 C 54.247 84.398,54.184 84.738,54.221 84.850 C 54.258 84.962,54.393 84.713,54.521 84.298 C 54.789 83.424,54.674 83.276,54.363 84.094 M301.863 84.094 C 301.747 84.398,301.684 84.738,301.721 84.850 C 301.758 84.962,301.893 84.713,302.021 84.298 C 302.289 83.424,302.174 83.276,301.863 84.094 M47.327 84.364 C 47.205 84.714,47.149 85.000,47.203 85.000 C 47.344 85.000,47.737 83.918,47.634 83.815 C 47.587 83.767,47.448 84.015,47.327 84.364 M96.071 84.375 C 96.071 84.547,96.152 84.875,96.250 85.104 C 96.363 85.367,96.429 85.405,96.429 85.208 C 96.429 85.036,96.348 84.708,96.250 84.479 C 96.137 84.217,96.071 84.178,96.071 84.375 M178.879 84.740 C 178.521 85.428,177.827 86.082,176.979 86.529 C 176.635 86.710,176.429 86.862,176.521 86.867 C 176.863 86.884,177.831 86.268,178.360 85.696 C 178.916 85.095,179.477 84.167,179.284 84.167 C 179.225 84.167,179.043 84.424,178.879 84.740 M237.629 84.740 C 237.271 85.428,236.577 86.082,235.729 86.529 C 235.385 86.710,235.179 86.862,235.271 86.867 C 235.613 86.884,236.581 86.268,237.110 85.696 C 237.666 85.095,238.227 84.167,238.034 84.167 C 237.975 84.167,237.793 84.424,237.629 84.740 M24.375 84.510 C 24.375 84.636,24.727 85.107,25.156 85.558 C 25.586 86.010,25.741 86.139,25.501 85.846 C 25.260 85.552,24.909 85.081,24.719 84.797 C 24.530 84.514,24.375 84.385,24.375 84.510 M187.888 84.896 C 188.232 85.532,188.950 86.381,188.945 86.146 C 188.943 86.031,188.654 85.609,188.302 85.208 C 187.950 84.807,187.764 84.667,187.888 84.896 M374.836 85.527 C 374.459 85.928,373.850 86.394,373.482 86.563 C 373.019 86.776,372.972 86.830,373.329 86.739 C 373.988 86.572,374.917 85.887,375.321 85.271 C 375.751 84.615,375.639 84.674,374.836 85.527 M31.852 85.612 C 31.603 85.949,31.128 86.336,30.797 86.473 C 30.466 86.611,30.236 86.764,30.286 86.814 C 30.478 87.006,31.653 86.229,32.081 85.628 C 32.657 84.819,32.449 84.804,31.852 85.612 M172.019 85.990 C 172.395 86.362,172.821 86.664,172.966 86.660 C 173.111 86.657,173.042 86.551,172.813 86.424 C 172.583 86.298,172.157 85.996,171.865 85.753 C 171.574 85.511,171.643 85.617,172.019 85.990 M195.103 85.626 C 194.895 85.856,194.774 86.093,194.834 86.154 C 194.894 86.214,195.099 86.026,195.289 85.736 C 195.704 85.102,195.622 85.053,195.103 85.626 M230.769 85.990 C 231.145 86.362,231.571 86.664,231.716 86.660 C 231.861 86.657,231.792 86.551,231.563 86.424 C 231.333 86.298,230.907 85.996,230.615 85.753 C 230.324 85.511,230.393 85.617,230.769 85.990 M278.166 85.677 C 277.908 85.935,277.395 86.264,277.026 86.408 L 276.354 86.670 276.979 86.552 C 277.483 86.456,279.119 85.208,278.740 85.208 C 278.682 85.208,278.424 85.419,278.166 85.677 M15.313 85.759 C 15.083 85.939,14.521 86.262,14.063 86.476 C 13.604 86.691,13.375 86.868,13.553 86.870 C 13.882 86.875,15.833 85.724,15.833 85.525 C 15.833 85.368,15.775 85.394,15.313 85.759 M145.938 85.759 C 145.708 85.939,145.146 86.262,144.688 86.476 C 144.229 86.691,144.000 86.868,144.178 86.870 C 144.507 86.875,146.458 85.724,146.458 85.525 C 146.458 85.368,146.400 85.394,145.938 85.759 M322.584 86.250 C 322.603 86.735,322.686 86.775,323.802 86.833 C 324.845 86.888,324.998 86.847,324.984 86.521 C 324.974 86.302,324.923 86.254,324.862 86.406 C 324.656 86.917,322.749 86.738,322.650 86.198 C 322.575 85.790,322.567 85.797,322.584 86.250 M46.013 86.262 C 45.547 86.668,45.545 86.679,45.978 86.469 C 46.229 86.347,46.493 86.155,46.563 86.041 C 46.768 85.709,46.543 85.799,46.013 86.262 M53.889 85.972 C 53.293 86.568,53.777 86.875,55.313 86.875 C 56.668 86.875,56.873 86.827,56.859 86.510 C 56.849 86.293,56.800 86.251,56.737 86.406 C 56.536 86.905,53.887 86.753,54.019 86.250 C 54.135 85.805,54.110 85.751,53.889 85.972 M301.389 85.972 C 300.793 86.568,301.277 86.875,302.813 86.875 C 304.168 86.875,304.373 86.827,304.359 86.510 C 304.349 86.293,304.300 86.251,304.237 86.406 C 304.036 86.905,301.387 86.753,301.519 86.250 C 301.635 85.805,301.610 85.751,301.389 85.972 M80.334 86.334 C 80.434 86.594,80.173 86.661,78.821 86.720 L 77.188 86.791 78.906 86.833 C 80.565 86.874,81.159 86.604,80.419 86.147 C 80.302 86.075,80.265 86.156,80.334 86.334 M193.854 86.570 C 193.510 86.727,193.375 86.860,193.554 86.866 C 193.733 86.871,194.061 86.737,194.283 86.569 C 194.777 86.196,194.671 86.196,193.854 86.570 M85.833 86.719 C 85.833 86.805,86.560 86.861,87.448 86.844 C 89.091 86.812,88.897 86.729,86.927 86.622 C 86.325 86.589,85.833 86.633,85.833 86.719 M93.678 86.719 C 93.731 86.805,94.472 86.875,95.325 86.875 C 96.177 86.875,96.875 86.805,96.875 86.719 C 96.875 86.633,96.134 86.563,95.228 86.563 C 94.323 86.563,93.625 86.633,93.678 86.719 M162.396 86.667 L 160.729 86.799 162.564 86.837 C 163.744 86.861,164.354 86.801,164.271 86.667 C 164.200 86.552,164.124 86.476,164.102 86.497 C 164.080 86.518,163.313 86.594,162.396 86.667 M292.500 86.719 C 292.500 86.805,293.297 86.875,294.271 86.875 C 295.245 86.875,296.042 86.805,296.042 86.719 C 296.042 86.633,295.245 86.563,294.271 86.563 C 293.297 86.563,292.500 86.633,292.500 86.719 M62.245 86.819 C 62.735 86.863,63.485 86.863,63.912 86.818 C 64.338 86.773,63.938 86.737,63.021 86.738 C 62.104 86.739,61.755 86.775,62.245 86.819 M204.635 86.818 C 205.065 86.863,205.768 86.863,206.198 86.818 C 206.628 86.773,206.276 86.737,205.417 86.737 C 204.557 86.737,204.206 86.773,204.635 86.818 M309.745 86.819 C 310.235 86.863,310.985 86.863,311.412 86.818 C 311.838 86.773,311.438 86.737,310.521 86.738 C 309.604 86.739,309.255 86.775,309.745 86.819 M11.302 87.024 C 11.617 87.072,12.133 87.072,12.448 87.024 C 12.763 86.976,12.505 86.937,11.875 86.937 C 11.245 86.937,10.987 86.976,11.302 87.024 M28.177 87.024 C 28.492 87.072,29.008 87.072,29.323 87.024 C 29.638 86.976,29.380 86.937,28.750 86.937 C 28.120 86.937,27.862 86.976,28.177 87.024 M43.388 87.024 C 43.705 87.072,44.174 87.071,44.430 87.022 C 44.686 86.972,44.427 86.933,43.854 86.935 C 43.281 86.936,43.072 86.977,43.388 87.024 M141.927 87.024 C 142.242 87.072,142.758 87.072,143.073 87.024 C 143.388 86.976,143.130 86.937,142.500 86.937 C 141.870 86.937,141.612 86.976,141.927 87.024 M174.427 87.024 C 174.742 87.072,175.258 87.072,175.573 87.024 C 175.888 86.976,175.630 86.937,175.000 86.937 C 174.370 86.937,174.112 86.976,174.427 87.024 M191.410 87.026 C 191.784 87.072,192.347 87.071,192.660 87.024 C 192.973 86.976,192.667 86.938,191.979 86.940 C 191.292 86.941,191.036 86.980,191.410 87.026 M233.177 87.024 C 233.492 87.072,234.008 87.072,234.323 87.024 C 234.638 86.976,234.380 86.937,233.750 86.937 C 233.120 86.937,232.862 86.976,233.177 87.024 M371.094 87.024 C 371.409 87.072,371.924 87.072,372.240 87.024 C 372.555 86.976,372.297 86.937,371.667 86.937 C 371.036 86.937,370.779 86.976,371.094 87.024 " stroke="none" fill="#808080" fill-rule="evenodd"></path><path id="path3" d="M9.447 73.023 C 8.708 73.466,7.349 75.110,7.266 75.661 C 7.230 75.899,7.196 76.028,6.915 76.979 C 6.302 79.055,6.733 82.873,7.778 84.638 C 9.386 87.354,12.727 87.689,15.781 85.441 L 16.667 84.789 16.667 81.770 L 16.667 78.750 14.375 78.750 L 12.083 78.750 12.083 80.104 L 12.083 81.458 13.125 81.458 L 14.167 81.458 14.167 82.357 C 14.167 84.421,10.880 84.788,9.946 82.830 C 9.490 81.874,9.473 77.484,9.922 76.616 C 10.829 74.862,12.962 74.676,13.529 76.302 C 13.654 76.660,13.856 76.880,14.008 76.824 C 14.152 76.770,14.763 76.601,15.365 76.449 C 16.578 76.141,16.554 76.176,16.215 75.187 C 15.350 72.666,11.889 71.559,9.447 73.023 M140.072 73.023 C 139.333 73.466,137.974 75.110,137.891 75.661 C 137.855 75.899,137.821 76.028,137.540 76.979 C 136.927 79.055,137.358 82.873,138.403 84.638 C 140.011 87.354,143.352 87.689,146.406 85.441 L 147.292 84.789 147.292 81.770 L 147.292 78.750 145.000 78.750 L 142.708 78.750 142.708 80.104 L 142.708 81.458 143.750 81.458 L 144.792 81.458 144.792 82.357 C 144.792 84.421,141.505 84.788,140.571 82.830 C 139.692 80.987,140.275 76.050,141.445 75.424 C 142.369 74.929,144.167 75.470,144.167 76.243 C 144.167 76.849,144.412 76.892,145.750 76.521 C 147.275 76.099,147.172 76.214,146.864 75.274 C 146.013 72.679,142.556 71.534,140.072 73.023 M172.957 72.849 C 168.797 74.899,168.837 84.587,173.012 86.483 C 175.705 87.707,179.055 86.007,179.710 83.085 C 181.301 75.990,177.690 70.517,172.957 72.849 M231.707 72.849 C 227.547 74.899,227.587 84.587,231.762 86.483 C 234.455 87.707,237.805 86.007,238.460 83.085 C 240.051 75.990,236.440 70.517,231.707 72.849 M369.347 72.970 C 365.112 75.584,365.554 85.123,369.979 86.633 C 371.730 87.231,373.620 86.792,374.879 85.496 C 377.263 83.042,377.238 76.007,374.838 73.783 C 373.304 72.360,370.908 72.006,369.347 72.970 M23.968 77.865 C 24.000 85.290,24.670 86.628,28.458 86.836 C 32.280 87.046,33.165 85.400,33.281 77.865 L 33.360 72.708 31.888 72.708 L 30.417 72.708 30.417 77.724 L 30.417 82.740 29.808 83.349 C 28.761 84.396,27.284 83.983,26.880 82.531 C 26.764 82.113,26.668 79.732,26.668 77.240 L 26.667 72.708 25.306 72.708 L 23.946 72.708 23.968 77.865 M44.988 77.344 C 44.973 82.940,44.890 83.565,44.118 83.836 C 43.358 84.103,42.811 83.600,42.742 82.567 C 42.674 81.562,42.750 81.596,41.247 81.892 L 39.954 82.147 40.068 82.896 C 40.526 85.884,41.747 87.041,44.228 86.835 C 47.163 86.592,47.739 85.205,47.871 78.073 L 47.970 72.708 46.485 72.708 L 45.000 72.708 44.988 77.344 M57.418 73.073 C 57.357 73.273,57.077 74.328,56.796 75.417 C 56.515 76.505,56.079 78.146,55.828 79.063 C 55.342 80.836,54.817 82.929,54.668 83.692 C 54.618 83.947,54.482 84.405,54.366 84.710 C 54.250 85.016,54.105 85.581,54.044 85.966 L 53.933 86.667 55.290 86.667 L 56.647 86.667 56.864 85.885 C 56.983 85.456,57.082 84.940,57.082 84.740 C 57.083 84.418,57.316 84.375,59.053 84.375 L 61.022 84.375 61.239 85.156 C 61.358 85.586,61.457 86.102,61.457 86.302 C 61.458 86.617,61.672 86.667,63.012 86.667 L 64.565 86.667 64.271 85.833 C 64.109 85.375,64.014 85.000,64.061 85.000 C 64.107 85.000,63.967 84.484,63.750 83.854 C 63.533 83.224,63.393 82.708,63.438 82.708 C 63.482 82.708,63.342 82.193,63.125 81.563 C 62.908 80.932,62.768 80.417,62.813 80.417 C 62.857 80.417,62.725 79.924,62.518 79.323 C 62.311 78.721,62.143 78.182,62.146 78.125 C 62.154 77.928,61.632 75.729,61.355 74.792 C 61.203 74.276,61.022 73.596,60.952 73.281 C 60.790 72.550,57.632 72.364,57.418 73.073 M70.833 79.674 L 70.833 86.667 72.292 86.667 L 73.750 86.667 73.750 83.750 C 73.750 80.842,73.751 80.833,74.231 80.833 C 74.938 80.833,75.343 81.238,75.692 82.294 C 75.863 82.811,76.230 83.749,76.508 84.377 C 76.786 85.006,77.078 85.779,77.156 86.094 C 77.361 86.912,80.496 87.015,80.329 86.198 C 79.989 84.536,78.791 81.896,77.977 81.015 L 77.471 80.468 78.174 80.034 C 80.147 78.815,80.360 74.875,78.543 73.229 C 78.126 72.852,77.737 72.806,74.458 72.747 L 70.833 72.681 70.833 79.674 M89.700 72.960 C 89.348 74.074,89.142 74.793,89.070 75.167 C 89.024 75.407,88.839 76.101,88.658 76.708 C 88.104 78.572,87.321 81.528,87.203 82.204 C 87.141 82.557,86.952 83.237,86.783 83.715 C 86.615 84.192,86.515 84.583,86.563 84.583 C 86.610 84.583,86.512 84.970,86.345 85.443 C 86.178 85.916,86.042 86.384,86.042 86.485 C 86.042 86.787,88.956 86.709,88.974 86.406 C 89.093 84.466,89.200 84.375,91.358 84.375 C 92.790 84.375,93.338 84.447,93.350 84.635 C 93.382 85.115,93.553 86.143,93.646 86.406 C 93.837 86.954,96.739 86.748,96.580 86.198 C 96.506 85.940,96.127 84.510,95.738 83.021 C 95.349 81.531,94.932 80.055,94.812 79.740 C 94.692 79.424,94.634 79.167,94.683 79.167 C 94.733 79.167,94.633 78.768,94.461 78.281 C 94.289 77.794,94.101 77.115,94.045 76.771 C 93.988 76.427,93.731 75.396,93.474 74.479 L 93.007 72.813 91.396 72.752 C 90.219 72.707,89.762 72.763,89.700 72.960 M101.250 74.271 L 101.250 75.833 102.917 75.833 L 104.583 75.833 104.583 81.250 L 104.583 86.667 105.938 86.667 L 107.292 86.667 107.292 81.250 L 107.292 75.833 108.958 75.833 L 110.625 75.833 110.625 74.271 L 110.625 72.708 105.938 72.708 L 101.250 72.708 101.250 74.271 M117.500 79.688 L 117.500 86.667 118.854 86.667 L 120.208 86.667 120.208 79.688 L 120.208 72.708 118.854 72.708 L 117.500 72.708 117.500 79.688 M154.583 79.674 L 154.583 86.667 155.938 86.667 L 157.292 86.667 157.292 83.750 C 157.292 80.842,157.293 80.833,157.773 80.833 C 158.525 80.833,158.923 81.258,159.373 82.543 C 159.602 83.197,160.024 84.264,160.311 84.913 C 160.598 85.562,160.833 86.222,160.833 86.380 C 160.833 86.692,163.849 86.815,164.023 86.510 C 164.233 86.142,162.287 81.707,161.669 81.148 C 161.100 80.633,161.141 80.362,161.853 79.942 C 163.734 78.831,163.985 75.061,162.286 73.432 L 161.640 72.813 158.112 72.747 L 154.583 72.681 154.583 79.674 M187.132 77.865 C 187.225 83.437,187.295 83.845,188.414 85.351 C 189.857 87.290,193.441 87.473,195.066 85.689 C 196.417 84.205,196.540 83.586,196.624 77.865 L 196.699 72.708 195.241 72.708 L 193.783 72.708 193.714 77.831 L 193.646 82.953 193.061 83.456 C 192.735 83.736,192.211 83.958,191.875 83.958 C 191.539 83.958,191.015 83.736,190.689 83.456 L 190.104 82.953 190.036 77.831 L 189.967 72.708 188.507 72.708 L 187.046 72.708 187.132 77.865 M203.958 79.673 L 203.958 86.667 205.417 86.667 L 206.875 86.667 206.875 83.958 L 206.875 81.250 208.326 81.250 C 211.196 81.250,212.164 80.225,212.228 77.120 C 212.305 73.340,211.734 72.836,207.270 72.746 L 203.958 72.680 203.958 79.673 M245.833 79.688 L 245.833 86.667 247.292 86.667 L 248.750 86.667 248.750 83.750 L 248.750 80.833 250.739 80.833 L 252.728 80.833 252.666 79.559 L 252.604 78.285 250.729 78.257 L 248.854 78.229 248.793 76.823 L 248.731 75.417 251.032 75.417 L 253.333 75.417 253.333 74.063 L 253.333 72.708 249.583 72.708 L 245.833 72.708 245.833 79.688 M270.208 79.688 L 270.208 86.667 273.198 86.667 C 278.158 86.667,279.330 85.800,279.131 82.280 C 279.048 80.818,278.331 79.583,277.565 79.583 C 277.129 79.583,277.248 79.072,277.806 78.547 C 279.316 77.129,278.911 73.787,277.126 72.936 C 276.843 72.802,275.328 72.708,273.428 72.708 L 270.208 72.708 270.208 79.688 M286.250 79.688 L 286.250 86.667 287.708 86.667 L 289.167 86.667 289.167 83.750 L 289.167 80.833 289.673 80.833 C 290.146 80.833,291.042 81.748,291.042 82.230 C 291.042 82.333,291.404 83.350,291.847 84.490 L 292.653 86.563 294.260 86.624 C 296.084 86.693,296.041 86.780,295.169 84.792 C 294.943 84.276,294.727 83.708,294.690 83.530 C 294.542 82.819,293.971 81.741,293.458 81.207 C 292.776 80.497,292.782 80.391,293.525 79.968 C 295.762 78.695,295.663 74.026,293.376 72.936 C 293.091 72.801,291.550 72.708,289.574 72.708 L 286.250 72.708 286.250 79.688 M304.918 73.073 C 304.857 73.273,304.577 74.328,304.296 75.417 C 304.015 76.505,303.579 78.146,303.328 79.063 C 302.842 80.836,302.317 82.929,302.168 83.692 C 302.118 83.947,301.982 84.405,301.866 84.710 C 301.750 85.016,301.605 85.581,301.544 85.966 L 301.433 86.667 302.790 86.667 L 304.147 86.667 304.364 85.885 C 304.483 85.456,304.582 84.940,304.582 84.740 C 304.583 84.418,304.816 84.375,306.553 84.375 L 308.522 84.375 308.739 85.156 C 308.858 85.586,308.957 86.102,308.957 86.302 C 308.958 86.617,309.172 86.667,310.512 86.667 L 312.065 86.667 311.771 85.833 C 311.609 85.375,311.514 85.000,311.561 85.000 C 311.607 85.000,311.467 84.484,311.250 83.854 C 311.033 83.224,310.893 82.708,310.938 82.708 C 310.982 82.708,310.842 82.193,310.625 81.563 C 310.408 80.932,310.268 80.417,310.313 80.417 C 310.357 80.417,310.225 79.924,310.018 79.323 C 309.811 78.721,309.643 78.182,309.646 78.125 C 309.654 77.928,309.132 75.729,308.855 74.792 C 308.703 74.276,308.522 73.596,308.452 73.281 C 308.290 72.550,305.132 72.364,304.918 73.073 M318.125 79.688 L 318.125 86.667 319.271 86.667 L 320.417 86.667 320.417 81.563 C 320.417 77.078,320.456 76.458,320.741 76.458 C 320.920 76.458,321.021 76.531,320.966 76.620 C 320.911 76.709,320.998 77.342,321.158 78.026 C 321.319 78.711,321.494 79.625,321.547 80.057 C 321.601 80.490,321.899 82.154,322.210 83.755 L 322.776 86.667 323.770 86.667 C 324.535 86.667,324.789 86.583,324.874 86.302 C 324.993 85.912,325.826 81.334,325.959 80.339 C 326.003 80.009,326.131 79.400,326.242 78.984 C 326.354 78.569,326.468 77.924,326.496 77.552 C 326.525 77.165,326.662 76.875,326.815 76.875 C 327.026 76.875,327.083 77.917,327.083 81.771 L 327.083 86.667 328.229 86.667 L 329.375 86.667 329.375 79.688 L 329.375 72.708 327.396 72.708 C 326.307 72.708,325.417 72.790,325.417 72.889 C 325.417 72.989,325.275 73.882,325.102 74.873 C 324.929 75.864,324.734 77.025,324.668 77.452 C 324.602 77.880,324.419 78.784,324.263 79.463 C 324.106 80.142,324.026 80.775,324.085 80.869 C 324.143 80.964,324.045 81.042,323.866 81.042 C 323.688 81.042,323.535 80.924,323.526 80.781 C 323.499 80.328,323.348 79.462,322.571 75.313 C 322.400 74.396,322.218 73.435,322.167 73.177 C 322.080 72.730,321.982 72.708,320.100 72.708 L 318.125 72.708 318.125 79.688 M336.667 79.688 L 336.667 86.667 338.125 86.667 L 339.583 86.667 339.583 83.958 L 339.583 81.250 341.115 81.250 C 343.897 81.250,344.896 80.090,344.896 76.857 C 344.896 73.294,344.160 72.708,339.678 72.708 L 336.667 72.708 336.667 79.688 M351.250 74.271 L 351.250 75.833 352.917 75.833 L 354.583 75.833 354.583 81.250 L 354.583 86.667 355.938 86.667 L 357.292 86.667 357.292 81.250 L 357.292 75.833 358.958 75.833 L 360.625 75.833 360.625 74.271 L 360.625 72.708 355.938 72.708 L 351.250 72.708 351.250 74.271 M383.750 79.688 L 383.750 86.667 385.104 86.667 L 386.458 86.667 386.458 82.917 C 386.458 80.776,386.540 79.167,386.650 79.167 C 386.822 79.167,387.242 79.983,389.730 85.156 L 390.456 86.667 391.790 86.667 L 393.125 86.667 393.125 79.688 L 393.125 72.708 391.771 72.708 L 390.417 72.708 390.417 76.604 C 390.417 78.963,390.342 80.422,390.226 80.302 C 390.034 80.103,388.022 76.131,386.986 73.906 L 386.428 72.708 385.089 72.708 L 383.750 72.708 383.750 79.688 M76.585 75.573 C 77.374 76.612,76.793 78.213,75.541 78.447 C 73.990 78.739,73.861 78.619,73.793 76.823 L 73.732 75.208 75.020 75.208 C 76.003 75.208,76.374 75.295,76.585 75.573 M160.288 75.848 C 161.153 77.312,160.069 78.660,158.157 78.501 L 157.396 78.438 157.335 76.823 L 157.274 75.208 158.592 75.208 C 159.842 75.208,159.930 75.241,160.288 75.848 M209.101 75.661 C 210.301 76.789,209.478 78.750,207.804 78.750 L 206.875 78.750 206.875 76.979 L 206.875 75.208 207.747 75.208 C 208.356 75.208,208.765 75.345,209.101 75.661 M275.680 75.596 C 276.650 76.567,275.739 78.112,274.156 78.180 L 273.021 78.229 272.957 77.002 C 272.865 75.218,272.924 75.140,274.281 75.253 C 274.914 75.305,275.543 75.460,275.680 75.596 M291.902 75.553 C 292.885 76.738,292.054 78.302,290.345 78.478 L 289.167 78.600 289.167 76.904 L 289.167 75.208 290.391 75.208 C 291.276 75.208,291.695 75.304,291.902 75.553 M341.812 75.677 C 342.899 76.874,342.089 78.750,340.485 78.750 L 339.583 78.750 339.583 76.979 L 339.583 75.208 340.485 75.208 C 341.154 75.208,341.495 75.329,341.812 75.677 M176.178 75.805 C 177.728 77.100,177.649 82.663,176.068 83.597 C 174.110 84.754,172.708 83.088,172.708 79.603 C 172.708 76.956,173.546 75.431,175.000 75.431 C 175.401 75.431,175.931 75.599,176.178 75.805 M234.934 75.810 C 236.505 77.122,236.406 82.659,234.794 83.611 C 232.860 84.753,231.458 83.068,231.458 79.603 C 231.458 76.295,233.217 74.376,234.934 75.810 M372.909 76.033 C 373.555 76.725,373.745 77.558,373.745 79.688 C 373.745 82.688,373.096 83.958,371.563 83.958 C 370.787 83.958,369.710 83.132,369.613 82.463 C 368.819 76.995,370.586 73.547,372.909 76.033 M59.595 77.656 C 59.732 78.315,59.973 79.383,60.131 80.030 C 60.540 81.711,60.566 81.667,59.167 81.667 C 57.691 81.667,57.729 81.792,58.339 78.949 C 58.988 75.922,59.190 75.714,59.595 77.656 M91.814 77.656 C 91.948 78.315,92.103 79.057,92.159 79.304 C 92.215 79.552,92.326 80.189,92.406 80.721 L 92.551 81.689 91.327 81.626 C 90.655 81.591,90.118 81.469,90.134 81.354 C 90.151 81.240,90.222 80.724,90.292 80.208 C 90.362 79.693,90.509 78.990,90.618 78.646 C 90.786 78.121,90.949 77.305,91.025 76.615 C 91.094 75.978,91.612 76.661,91.814 77.656 M307.095 77.656 C 307.232 78.315,307.473 79.383,307.631 80.030 C 308.040 81.711,308.066 81.667,306.667 81.667 C 305.191 81.667,305.229 81.792,305.839 78.949 C 306.488 75.922,306.690 75.714,307.095 77.656 M275.909 80.939 C 277.328 82.358,276.342 83.958,274.049 83.958 L 272.917 83.958 272.917 82.292 L 272.917 80.625 274.256 80.625 C 275.171 80.625,275.695 80.724,275.909 80.939 " stroke="none" fill="#b1b1b1" fill-rule="evenodd"></path><path id="path4" d="M0.000 112.500 L 0.000 225.000 200.000 225.000 L 400.000 225.000 400.000 168.750 L 400.000 112.500 200.417 112.500 L 0.833 112.500 0.833 76.250 L 0.833 40.000 200.417 40.000 L 400.000 40.000 400.000 20.000 L 400.000 0.000 200.000 0.000 L 0.000 0.000 0.000 112.500 " stroke="none" fill="#ffffff" fill-rule="evenodd"></path></g></svg>